<?xml version="1.0" encoding="utf-8"?>
<!-- generated at drububu.com  -->
<!DOCTYPE svg PUBLIC "-//W3C//DTD SVG 1.1//EN" "http://www.w3.org/Graphics/SVG/1.1/DTD/svg11.dtd">
<svg version="1.1" preserveAspectRatio="xMinYMin meet" xmlns="http://www.w3.org/2000/svg" xmlns:xlink="http://www.w3.org/1999/xlink" x="0px" y="0px" width="96px" height="128px" viewBox="0 0 96 128">
<path d="M0 0h96v128h-96v-128z" fill="rgb(255,255,255)"/>
<path d="M4 2h23v11h-23v-11z" fill="rgb(244,67,54)"/>
<path d="M34 2h27v11h-27v-11z" fill="rgb(76,175,80)"/>
<path d="M69 2h24v11h-24v-11z" fill="rgb(33,150,243)"/>
<path d="M2 5h2v8h23v-8h7v8h27v-8h8v8h24v-8h1v105h-4v-33h2v-13h-88v13h2v33h-4
	v-105z" fill="rgb(121,85,72)"/>
<path d="M14 5h2v1h-2v-1z" fill="rgb(0,0,0)"/>
<path d="M48 5h2v1h-2v-1z" fill="rgb(0,0,0)"/>
<path d="M80 5h1v4h1v1h-3v-1h1v-2h-1v-1h1v-1z" fill="rgb(0,0,0)"/>
<path d="M13 6h1v1h-1v-1z" fill="rgb(0,0,0)"/>
<path d="M16 6h1v1h-1v-1z" fill="rgb(0,0,0)"/>
<path d="M47 6h1v3h-1v-3z" fill="rgb(0,0,0)"/>
<path d="M48 6h2v3h-2v-3z" fill="rgb(76,175,80)"/>
<path d="M50 6h1v3h-1v-3z" fill="rgb(0,0,0)"/>
<path d="M15 7h1v1h-1v-1z" fill="rgb(0,0,0)"/>
<path d="M14 8h1v1h2v1h-4v-1h1v-1z" fill="rgb(0,0,0)"/>
<path d="M48 9h2v1h-2v-1z" fill="rgb(0,0,0)"/>
<path d="M8 17h79v44h-79v-44z" fill="rgb(0,0,0)"/>
<path d="M9 18h77v42h-77v-42z" fill="rgb(255,255,255)"/>
<path d="M42 21h9v1h-9v-1z" fill="rgb(0,0,0)"/>
<path d="M40 22h2v1h-2v-1z" fill="rgb(0,0,0)"/>
<path d="M42 22h9v1h2v1h-5v1h-2v1h-2v1h-2v-1h-1v-1h-2v1h-1v1h-1v1h-1v1h-1v1h1v1
	h2v1h-1v2h-1v2h-1v2h-2v1h-2v1h-2v-6h1v-2h1v-2h1v-1h1v-1h1v-1h1v-1h1v-1h2v-1h2
	v-1h2v-1z" fill="rgb(198,0,0)"/>
<path d="M51 22h2v1h-2v-1z" fill="rgb(0,0,0)"/>
<path d="M38 23h2v1h-2v-1z" fill="rgb(0,0,0)"/>
<path d="M53 23h2v1h-2v-1z" fill="rgb(0,0,0)"/>
<path d="M36 24h2v1h-2v-1z" fill="rgb(0,0,0)"/>
<path d="M48 24h7v1h2v1h1v1h1v1h1v1h1v1h1v2h1v2h1v2h-3v-1h-4v-1h-5v-1h-1v-1h-2
	v-1h-3v1h-2v1h-1v1h-2v1h-2v1h-2v1h-2v-1h1v-2h1v-2h1v-1h1v-1h1v-1h1v-1h1v-1h2v-1
	h2v-1h2v-1z" fill="rgb(255,15,15)"/>
<path d="M55 24h2v1h-2v-1z" fill="rgb(0,0,0)"/>
<path d="M35 25h1v1h-1v-1z" fill="rgb(0,0,0)"/>
<path d="M39 25h2v1h1v2h-1v1h-1v1h-2v1h-2v-1h-1v-1h1v-1h1v-1h1v-1h1v-1z" fill="rgb(255,155,155)"/>
<path d="M57 25h1v1h-1v-1z" fill="rgb(0,0,0)"/>
<path d="M34 26h1v1h-1v-1z" fill="rgb(0,0,0)"/>
<path d="M58 26h1v1h-1v-1z" fill="rgb(0,0,0)"/>
<path d="M33 27h1v1h-1v-1z" fill="rgb(0,0,0)"/>
<path d="M59 27h1v1h-1v-1z" fill="rgb(0,0,0)"/>
<path d="M32 28h1v1h-1v-1z" fill="rgb(0,0,0)"/>
<path d="M60 28h1v1h-1v-1z" fill="rgb(0,0,0)"/>
<path d="M31 29h1v1h-1v-1z" fill="rgb(0,0,0)"/>
<path d="M61 29h1v1h-1v-1z" fill="rgb(0,0,0)"/>
<path d="M30 30h1v2h-1v-2z" fill="rgb(0,0,0)"/>
<path d="M38 30h1v1h-1v-1z" fill="rgb(198,0,0)"/>
<path d="M62 30h1v2h-1v-2z" fill="rgb(0,0,0)"/>
<path d="M46 31h3v1h-3v-1z" fill="rgb(0,0,0)"/>
<path d="M29 32h1v2h-1v-2z" fill="rgb(0,0,0)"/>
<path d="M44 32h2v1h-2v-1z" fill="rgb(0,0,0)"/>
<path d="M46 32h3v1h-3v-1z" fill="rgb(48,48,48)"/>
<path d="M49 32h2v1h-2v-1z" fill="rgb(0,0,0)"/>
<path d="M63 32h1v2h-1v-2z" fill="rgb(0,0,0)"/>
<path d="M43 33h1v1h-1v-1z" fill="rgb(0,0,0)"/>
<path d="M44 33h2v1h-2v-1z" fill="rgb(48,48,48)"/>
<path d="M46 33h3v1h-3v-1z" fill="rgb(0,0,0)"/>
<path d="M49 33h2v1h-2v-1z" fill="rgb(48,48,48)"/>
<path d="M51 33h1v1h-1v-1z" fill="rgb(0,0,0)"/>
<path d="M28 34h1v6h2v1h-2v3h-1v-10z" fill="rgb(0,0,0)"/>
<path d="M41 34h2v1h-2v-1z" fill="rgb(0,0,0)"/>
<path d="M43 34h1v1h-1v-1z" fill="rgb(48,48,48)"/>
<path d="M44 34h2v1h-2v-1z" fill="rgb(0,0,0)"/>
<path d="M46 34h3v1h-3v-1z" fill="rgb(248,248,248)"/>
<path d="M49 34h2v1h-2v-1z" fill="rgb(0,0,0)"/>
<path d="M51 34h1v1h-1v-1z" fill="rgb(48,48,48)"/>
<path d="M52 34h5v1h-5v-1z" fill="rgb(0,0,0)"/>
<path d="M64 34h1v10h-1v-3h-4v-1h4v-3h-3v-1h3v-2z" fill="rgb(0,0,0)"/>
<path d="M39 35h2v1h-2v-1z" fill="rgb(0,0,0)"/>
<path d="M41 35h2v3h-2v1h-2v1h-2v1h-2v1h-3v-1h1v-1h1v-1h1v-1h2v-1h2v-1h2v-1z" fill="rgb(48,48,48)"/>
<path d="M43 35h1v3h-1v-3z" fill="rgb(0,0,0)"/>
<path d="M44 35h2v1h-1v1h1v1h-2v-3z" fill="rgb(248,248,248)"/>
<path d="M46 35h3v1h-3v-1z" fill="rgb(0,0,0)"/>
<path d="M49 35h2v3h-2v-1h1v-1h-1v-1z" fill="rgb(248,248,248)"/>
<path d="M51 35h1v3h-1v-3z" fill="rgb(0,0,0)"/>
<path d="M52 35h5v1h4v1h3v3h-4v-1h-3v-1h-5v-3z" fill="rgb(48,48,48)"/>
<path d="M57 35h4v1h-4v-1z" fill="rgb(0,0,0)"/>
<path d="M37 36h2v1h-2v-1z" fill="rgb(0,0,0)"/>
<path d="M45 36h1v1h-1v-1z" fill="rgb(0,0,0)"/>
<path d="M46 36h3v1h-3v-1z" fill="rgb(248,248,248)"/>
<path d="M49 36h1v1h-1v-1z" fill="rgb(0,0,0)"/>
<path d="M35 37h2v1h-2v-1z" fill="rgb(0,0,0)"/>
<path d="M46 37h3v1h-3v-1z" fill="rgb(0,0,0)"/>
<path d="M33 38h2v1h-2v-1z" fill="rgb(0,0,0)"/>
<path d="M41 38h2v1h-2v-1z" fill="rgb(0,0,0)"/>
<path d="M43 38h1v1h-1v-1z" fill="rgb(48,48,48)"/>
<path d="M44 38h2v1h-2v-1z" fill="rgb(0,0,0)"/>
<path d="M46 38h3v1h-3v-1z" fill="rgb(248,248,248)"/>
<path d="M49 38h2v1h-2v-1z" fill="rgb(0,0,0)"/>
<path d="M51 38h1v1h-1v-1z" fill="rgb(48,48,48)"/>
<path d="M52 38h5v1h-5v-1z" fill="rgb(0,0,0)"/>
<path d="M31 39h2v1h-2v-1z" fill="rgb(0,0,0)"/>
<path d="M33 39h1v1h-1v-1z" fill="rgb(27,27,27)"/>
<path d="M39 39h2v1h-2v-1z" fill="rgb(0,0,0)"/>
<path d="M41 39h2v1h1v1h2v1h3v-1h2v-1h1v-1h5v1h3v1h4v3h-1v2h-1v2h-1v1h-1v1h-1v1
	h-1v1h-1v1h-2v1h-4v-1h-4v-1h-4v-1h-2v-1h-2v-1h-1v-1h-1v-1h-1v-2h-1v-3h2v-1h2
	v-1h2v-1z" fill="rgb(248,248,248)"/>
<path d="M43 39h1v1h-1v-1z" fill="rgb(0,0,0)"/>
<path d="M44 39h2v1h-2v-1z" fill="rgb(48,48,48)"/>
<path d="M46 39h3v1h-3v-1z" fill="rgb(0,0,0)"/>
<path d="M49 39h2v1h-2v-1z" fill="rgb(48,48,48)"/>
<path d="M51 39h1v1h-1v-1z" fill="rgb(0,0,0)"/>
<path d="M57 39h3v1h-3v-1z" fill="rgb(0,0,0)"/>
<path d="M31 40h2v1h-1v1h1v1h-2v1h-2v-3h2v-1z" fill="rgb(27,27,27)"/>
<path d="M37 40h2v1h-2v-1z" fill="rgb(0,0,0)"/>
<path d="M44 40h2v1h-2v-1z" fill="rgb(0,0,0)"/>
<path d="M46 40h3v1h-3v-1z" fill="rgb(48,48,48)"/>
<path d="M49 40h2v1h-2v-1z" fill="rgb(0,0,0)"/>
<path d="M35 41h2v1h-2v-1z" fill="rgb(0,0,0)"/>
<path d="M46 41h3v1h-3v-1z" fill="rgb(0,0,0)"/>
<path d="M33 42h2v1h-2v-1z" fill="rgb(0,0,0)"/>
<path d="M31 43h2v1h-2v-1z" fill="rgb(0,0,0)"/>
<path d="M33 43h2v2h1v2h1v1h1v1h1v1h2v1h2v1h4v1h4v1h2v1h-2v1h-9v-1h-2v-1h-2v-1
	h-2v-1h-1v-1h-1v-1h-1v-1h-1v-1h-1v-2h-1v-1h1v-1h2v-1z" fill="rgb(192,192,192)"/>
<path d="M29 44h2v1h-1v1h-1v-2z" fill="rgb(0,0,0)"/>
<path d="M63 44h1v2h-1v-2z" fill="rgb(0,0,0)"/>
<path d="M30 46h1v2h-1v-2z" fill="rgb(0,0,0)"/>
<path d="M62 46h1v2h-1v-2z" fill="rgb(0,0,0)"/>
<path d="M31 48h1v1h-1v-1z" fill="rgb(0,0,0)"/>
<path d="M61 48h1v1h-1v-1z" fill="rgb(0,0,0)"/>
<path d="M32 49h1v1h-1v-1z" fill="rgb(0,0,0)"/>
<path d="M60 49h1v1h-1v-1z" fill="rgb(0,0,0)"/>
<path d="M33 50h1v1h-1v-1z" fill="rgb(0,0,0)"/>
<path d="M59 50h1v1h-1v-1z" fill="rgb(0,0,0)"/>
<path d="M34 51h1v1h-1v-1z" fill="rgb(0,0,0)"/>
<path d="M58 51h1v1h-1v-1z" fill="rgb(0,0,0)"/>
<path d="M35 52h1v1h-1v-1z" fill="rgb(0,0,0)"/>
<path d="M57 52h1v1h-1v-1z" fill="rgb(0,0,0)"/>
<path d="M36 53h2v1h-2v-1z" fill="rgb(0,0,0)"/>
<path d="M55 53h2v1h-2v-1z" fill="rgb(0,0,0)"/>
<path d="M38 54h2v1h-2v-1z" fill="rgb(0,0,0)"/>
<path d="M53 54h2v1h-2v-1z" fill="rgb(0,0,0)"/>
<path d="M40 55h2v1h-2v-1z" fill="rgb(0,0,0)"/>
<path d="M51 55h2v1h-2v-1z" fill="rgb(0,0,0)"/>
<path d="M42 56h9v1h-9v-1z" fill="rgb(0,0,0)"/>
<path d="M4 64h88v13h-88v-13z" fill="rgb(0,0,0)"/>
<path d="M5 65h86v11h-86v-11z" fill="rgb(255,255,255)"/>
<path d="M34 68h2v1h-2v-1z" fill="rgb(0,0,0)"/>
<path d="M43 68h3v1h-2v1h2v1h-2v1h2v1h-3v-5z" fill="rgb(0,0,0)"/>
<path d="M49 68h2v1h-2v-1z" fill="rgb(0,0,0)"/>
<path d="M53 68h1v4h3v1h-4v-5z" fill="rgb(0,0,0)"/>
<path d="M58 68h1v4h3v1h-4v-5z" fill="rgb(0,0,0)"/>
<path d="M33 69h1v1h2v-1h1v4h-1v-2h-2v2h-1v-4z" fill="rgb(0,0,0)"/>
<path d="M34 69h2v1h-2v-1z" fill="rgb(255,255,255)"/>
<path d="M44 69h2v1h-2v-1z" fill="rgb(255,255,255)"/>
<path d="M46 69h1v1h-1v-1z" fill="rgb(0,0,0)"/>
<path d="M48 69h1v1h2v-1h1v4h-1v-2h-2v2h-1v-4z" fill="rgb(0,0,0)"/>
<path d="M49 69h2v1h-2v-1z" fill="rgb(255,255,255)"/>
<path d="M44 71h2v1h-2v-1z" fill="rgb(255,255,255)"/>
<path d="M46 71h1v1h-1v-1z" fill="rgb(0,0,0)"/>
<path d="M6 77h84v33h-15v12h-56v-12h-13v-33z" fill="rgb(255,255,255)"/>
<path d="M20 89h3v1h-2v3h2v1h-3v-5z" fill="rgb(0,0,0)"/>
<path d="M25 89h3v1h-2v1h2v2h-1v-1h-1v2h-1v-5z" fill="rgb(0,0,0)"/>
<path d="M31 89h2v1h-2v-1z" fill="rgb(0,0,0)"/>
<path d="M35 89h1v3h1v1h-1v1h-1v-5z" fill="rgb(0,0,0)"/>
<path d="M39 89h1v5h-1v-1h-1v-1h1v-3z" fill="rgb(0,0,0)"/>
<path d="M47 89h2v1h-2v-1z" fill="rgb(0,0,0)"/>
<path d="M57 89h2v1h-2v-1z" fill="rgb(0,0,0)"/>
<path d="M62 89h2v1h-2v-1z" fill="rgb(0,0,0)"/>
<path d="M66 89h3v1h-2v1h2v2h-1v-1h-1v2h-1v-5z" fill="rgb(0,0,0)"/>
<path d="M71 89h3v1h-2v3h2v1h-3v-5z" fill="rgb(0,0,0)"/>
<path d="M77 89h3v1h-3v-1z" fill="rgb(0,0,0)"/>
<path d="M21 90h2v3h-2v-3z" fill="rgb(255,255,255)"/>
<path d="M23 90h1v3h-1v-3z" fill="rgb(0,0,0)"/>
<path d="M26 90h2v1h-2v-1z" fill="rgb(255,255,255)"/>
<path d="M28 90h1v1h-1v-1z" fill="rgb(0,0,0)"/>
<path d="M30 90h1v1h2v-1h1v4h-1v-2h-2v2h-1v-4z" fill="rgb(0,0,0)"/>
<path d="M31 90h2v1h-2v-1z" fill="rgb(255,255,255)"/>
<path d="M46 90h1v1h-1v-1z" fill="rgb(0,0,0)"/>
<path d="M49 90h1v1h-1v-1z" fill="rgb(0,0,0)"/>
<path d="M56 90h1v3h-1v-3z" fill="rgb(0,0,0)"/>
<path d="M59 90h1v1h-1v-1z" fill="rgb(0,0,0)"/>
<path d="M61 90h1v1h2v-1h1v4h-1v-2h-2v2h-1v-4z" fill="rgb(0,0,0)"/>
<path d="M62 90h2v1h-2v-1z" fill="rgb(255,255,255)"/>
<path d="M67 90h2v1h-2v-1z" fill="rgb(255,255,255)"/>
<path d="M69 90h1v1h-1v-1z" fill="rgb(0,0,0)"/>
<path d="M72 90h2v3h-2v-3z" fill="rgb(255,255,255)"/>
<path d="M74 90h1v3h-1v-3z" fill="rgb(0,0,0)"/>
<path d="M76 90h1v1h-1v-1z" fill="rgb(0,0,0)"/>
<path d="M37 91h1v1h-1v-1z" fill="rgb(0,0,0)"/>
<path d="M48 91h1v1h-1v-1z" fill="rgb(0,0,0)"/>
<path d="M77 91h2v1h-2v-1z" fill="rgb(0,0,0)"/>
<path d="M46 92h1v1h-1v-1z" fill="rgb(0,0,0)"/>
<path d="M49 92h1v1h-1v-1z" fill="rgb(0,0,0)"/>
<path d="M59 92h1v1h-1v-1z" fill="rgb(0,0,0)"/>
<path d="M79 92h1v1h-1v-1z" fill="rgb(0,0,0)"/>
<path d="M28 93h1v1h-1v-1z" fill="rgb(0,0,0)"/>
<path d="M47 93h2v1h-2v-1z" fill="rgb(0,0,0)"/>
<path d="M57 93h2v1h-2v-1z" fill="rgb(0,0,0)"/>
<path d="M69 93h1v1h-1v-1z" fill="rgb(0,0,0)"/>
<path d="M76 93h3v1h-3v-1z" fill="rgb(0,0,0)"/>
<path d="M1 110h18v17h-18v-17z" fill="rgb(244,67,54)"/>
<path d="M75 110h20v17h-20v-17z" fill="rgb(33,150,243)"/>
<path d="M19 122h56v3h-56v-3z" fill="rgb(121,85,72)"/>
</svg>