<?xml version="1.0" encoding="utf-8"?>
<!-- generated at drububu.com  -->
<!DOCTYPE svg PUBLIC "-//W3C//DTD SVG 1.1//EN" "http://www.w3.org/Graphics/SVG/1.1/DTD/svg11.dtd">
<svg version="1.1" preserveAspectRatio="xMinYMin meet" xmlns="http://www.w3.org/2000/svg" xmlns:xlink="http://www.w3.org/1999/xlink" x="0px" y="0px" width="96px" height="128px" viewBox="0 0 96 128">
<path d="M0 0h96v128h-96v-128z" fill="rgb(255,255,255)"/>
<path d="M4 2h23v11h-23v-11z" fill="rgb(244,67,54)"/>
<path d="M34 2h27v11h-27v-11z" fill="rgb(76,175,80)"/>
<path d="M69 2h24v11h-24v-11z" fill="rgb(33,150,243)"/>
<path d="M2 5h2v8h23v-8h7v8h27v-8h8v8h24v-8h1v105h-4v-33h2v-13h-88v13h2v33h-4
	v-105z" fill="rgb(121,85,72)"/>
<path d="M14 5h2v1h-2v-1z" fill="rgb(0,0,0)"/>
<path d="M47 5h1v3h1v1h-1v1h-1v-1h-2v-2h1v-1h1v-1z" fill="rgb(0,0,0)"/>
<path d="M80 5h2v1h-2v-1z" fill="rgb(0,0,0)"/>
<path d="M13 6h1v1h-1v-1z" fill="rgb(0,0,0)"/>
<path d="M16 6h1v1h-1v-1z" fill="rgb(0,0,0)"/>
<path d="M79 6h1v3h-1v-3z" fill="rgb(0,0,0)"/>
<path d="M80 6h2v3h-2v-3z" fill="rgb(33,150,243)"/>
<path d="M82 6h1v3h-1v-3z" fill="rgb(0,0,0)"/>
<path d="M15 7h1v1h-1v-1z" fill="rgb(0,0,0)"/>
<path d="M46 7h1v1h-1v-1z" fill="rgb(76,175,80)"/>
<path d="M14 8h1v1h2v1h-4v-1h1v-1z" fill="rgb(0,0,0)"/>
<path d="M80 9h2v1h-2v-1z" fill="rgb(0,0,0)"/>
<path d="M8 17h79v44h-79v-44z" fill="rgb(0,0,0)"/>
<path d="M9 18h77v42h-77v-42z" fill="rgb(255,255,255)"/>
<path d="M32 23h23v1h-23v-1z" fill="rgb(0,0,0)"/>
<path d="M31 24h1v1h-1v-1z" fill="rgb(0,0,0)"/>
<path d="M32 24h23v1h-3v1h-1v1h-1v1h-1v1h-1v1h-1v2h1v1h1v1h1v1h1v1h1v1h1v1h2v-1
	h1v-1h1v-1h1v-1h1v-1h1v-1h1v-1h1v1h8v1h4v1h2v1h1v1h-1v1h-1v1h1v2h-1v1h-2v-1h-1
	v1h-1v3h1v1h-1v2h1v1h-1v1h-1v2h-3v-3h-1v-2h1v-1h-1v-1h-1v-1h-8v1h-1v1h-1v2h-3
	v-5h-1v4h-16v-4h-1v7h1v1h18v1h-21v-2h-1v-2h-1v-1h-1v-1h-6v1h-1v1h-1v1h-1v3h-2
	v-8h-1v-1h-1v-1h1v-2h6v-1h1v-2h1v-2h1v-2h1v-2h1v-2h1v-1h1v-1h1v-1h1v-1z" fill="rgb(227,4,4)"/>
<path d="M55 24h1v1h-1v-1z" fill="rgb(0,0,0)"/>
<path d="M30 25h1v1h-1v-1z" fill="rgb(0,0,0)"/>
<path d="M52 25h3v1h-3v-1z" fill="rgb(0,0,0)"/>
<path d="M55 25h1v1h-1v-1z" fill="rgb(227,4,4)"/>
<path d="M56 25h1v1h-1v-1z" fill="rgb(0,0,0)"/>
<path d="M29 26h1v1h-1v-1z" fill="rgb(0,0,0)"/>
<path d="M51 26h1v1h-1v-1z" fill="rgb(0,0,0)"/>
<path d="M52 26h3v1h1v1h1v1h1v1h1v1h1v1h-1v1h-1v1h-1v1h-1v1h-1v1h-2v-1h-1v-1h-1
	v-1h-1v-1h-1v-1h-1v-2h1v-1h1v-1h1v-1h1v-1z" fill="rgb(112,112,112)"/>
<path d="M55 26h1v1h-1v-1z" fill="rgb(0,0,0)"/>
<path d="M56 26h1v1h-1v-1z" fill="rgb(227,4,4)"/>
<path d="M57 26h1v1h-1v-1z" fill="rgb(0,0,0)"/>
<path d="M28 27h1v1h-1v-1z" fill="rgb(0,0,0)"/>
<path d="M50 27h1v1h-1v-1z" fill="rgb(0,0,0)"/>
<path d="M56 27h1v1h-1v-1z" fill="rgb(0,0,0)"/>
<path d="M57 27h1v1h-1v-1z" fill="rgb(227,4,4)"/>
<path d="M58 27h1v1h-1v-1z" fill="rgb(0,0,0)"/>
<path d="M27 28h1v2h-1v-2z" fill="rgb(0,0,0)"/>
<path d="M49 28h1v1h-1v-1z" fill="rgb(0,0,0)"/>
<path d="M57 28h1v1h-1v-1z" fill="rgb(0,0,0)"/>
<path d="M58 28h1v1h-1v-1z" fill="rgb(227,4,4)"/>
<path d="M59 28h1v1h-1v-1z" fill="rgb(0,0,0)"/>
<path d="M48 29h1v1h-1v-1z" fill="rgb(0,0,0)"/>
<path d="M58 29h1v1h-1v-1z" fill="rgb(0,0,0)"/>
<path d="M59 29h1v1h-1v-1z" fill="rgb(227,4,4)"/>
<path d="M60 29h1v1h-1v-1z" fill="rgb(0,0,0)"/>
<path d="M26 30h1v2h-1v-2z" fill="rgb(0,0,0)"/>
<path d="M29 30h15v1h-8v7h8v-7h2v2h-1v5h1v-5h1v1h1v1h-1v3h3v-1h1v1h1v1h-27v-2h1
	v1h6v-7h-3v-1z" fill="rgb(0,0,0)"/>
<path d="M47 30h1v2h-1v-2z" fill="rgb(0,0,0)"/>
<path d="M59 30h1v1h-1v-1z" fill="rgb(0,0,0)"/>
<path d="M60 30h1v1h-1v-1z" fill="rgb(227,4,4)"/>
<path d="M61 30h1v1h-1v-1z" fill="rgb(0,0,0)"/>
<path d="M28 31h1v2h-1v-2z" fill="rgb(0,0,0)"/>
<path d="M29 31h3v7h-6v-1h1v-2h1v-2h1v-2z" fill="rgb(112,112,112)"/>
<path d="M33 31h2v7h-2v-7z" fill="rgb(194,184,184)"/>
<path d="M36 31h8v7h-8v-7z" fill="rgb(112,112,112)"/>
<path d="M60 31h1v1h-1v-1z" fill="rgb(0,0,0)"/>
<path d="M62 31h8v1h-8v-1z" fill="rgb(0,0,0)"/>
<path d="M25 32h1v2h-1v2h-1v-2h-1v-1h2v-1z" fill="rgb(0,0,0)"/>
<path d="M48 32h1v1h-1v-1z" fill="rgb(0,0,0)"/>
<path d="M59 32h1v1h-1v-1z" fill="rgb(0,0,0)"/>
<path d="M70 32h4v1h-4v-1z" fill="rgb(0,0,0)"/>
<path d="M27 33h1v2h-1v-2z" fill="rgb(0,0,0)"/>
<path d="M45 33h1v5h-1v-5z" fill="rgb(212,47,47)"/>
<path d="M49 33h1v1h-1v-1z" fill="rgb(0,0,0)"/>
<path d="M58 33h1v1h-1v-1z" fill="rgb(0,0,0)"/>
<path d="M65 33h3v2h-2v-1h-1v-1z" fill="rgb(212,47,47)"/>
<path d="M74 33h2v1h-2v-1z" fill="rgb(0,0,0)"/>
<path d="M21 34h2v1h-2v-1z" fill="rgb(0,0,0)"/>
<path d="M23 34h1v2h-1v3h-5v-1h1v-1h1v-1h1v-1h2v-1z" fill="rgb(148,3,3)"/>
<path d="M50 34h1v1h-1v-1z" fill="rgb(0,0,0)"/>
<path d="M57 34h1v1h-1v-1z" fill="rgb(0,0,0)"/>
<path d="M68 34h4v1h-4v-1z" fill="rgb(0,0,0)"/>
<path d="M76 34h1v1h-1v-1z" fill="rgb(0,0,0)"/>
<path d="M20 35h1v1h-1v-1z" fill="rgb(0,0,0)"/>
<path d="M26 35h1v2h-1v-2z" fill="rgb(0,0,0)"/>
<path d="M47 35h1v1h1v1h1v1h-3v-3z" fill="rgb(112,112,112)"/>
<path d="M48 35h1v1h-1v-1z" fill="rgb(0,0,0)"/>
<path d="M51 35h1v1h-1v-1z" fill="rgb(0,0,0)"/>
<path d="M56 35h1v1h-1v-1z" fill="rgb(0,0,0)"/>
<path d="M72 35h2v1h-2v-1z" fill="rgb(0,0,0)"/>
<path d="M77 35h1v1h-1v-1z" fill="rgb(0,0,0)"/>
<path d="M19 36h1v1h-1v-1z" fill="rgb(0,0,0)"/>
<path d="M23 36h1v2h-1v-2z" fill="rgb(0,0,0)"/>
<path d="M49 36h1v1h-1v-1z" fill="rgb(0,0,0)"/>
<path d="M52 36h1v1h-1v-1z" fill="rgb(0,0,0)"/>
<path d="M55 36h1v1h-1v-1z" fill="rgb(0,0,0)"/>
<path d="M67 36h4v1h-4v-1z" fill="rgb(212,47,47)"/>
<path d="M74 36h1v1h-1v-1z" fill="rgb(0,0,0)"/>
<path d="M76 36h1v3h1v-3h1v6h1v3h-1v3h-1v-2h-1v-1h1v-1h1v-1h-1v-1h-1v-1h1v-1h-2
	v-2h-1v-1h1v-1z" fill="rgb(0,0,0)"/>
<path d="M77 36h1v3h-1v-3z" fill="rgb(230,225,225)"/>
<path d="M18 37h1v1h-1v-1z" fill="rgb(0,0,0)"/>
<path d="M53 37h2v1h-2v-1z" fill="rgb(0,0,0)"/>
<path d="M71 37h2v1h-2v-1z" fill="rgb(0,0,0)"/>
<path d="M17 38h1v1h-1v-1z" fill="rgb(0,0,0)"/>
<path d="M62 38h6v1h-6v-1z" fill="rgb(0,0,0)"/>
<path d="M73 38h1v1h-1v-1z" fill="rgb(0,0,0)"/>
<path d="M16 39h1v2h-1v-2z" fill="rgb(0,0,0)"/>
<path d="M68 39h4v1h-4v-1z" fill="rgb(0,0,0)"/>
<path d="M74 39h1v1h-1v-1z" fill="rgb(0,0,0)"/>
<path d="M38 40h2v1h-2v-1z" fill="rgb(0,0,0)"/>
<path d="M58 40h9v1h-9v-1z" fill="rgb(212,47,47)"/>
<path d="M72 40h1v1h-1v-1z" fill="rgb(0,0,0)"/>
<path d="M75 40h1v1h-1v-1z" fill="rgb(0,0,0)"/>
<path d="M76 40h2v1h-1v1h-1v1h-1v-2h1v-1z" fill="rgb(194,184,184)"/>
<path d="M15 41h1v1h1v1h-1v3h1v-3h1v8h-2v-1h-1v-9z" fill="rgb(0,0,0)"/>
<path d="M71 41h1v3h-1v-3z" fill="rgb(0,0,0)"/>
<path d="M72 41h1v3h-1v-3z" fill="rgb(230,225,225)"/>
<path d="M73 41h2v2h-1v2h-1v1h-1v1h-1v-2h1v-1h1v-3z" fill="rgb(0,0,0)"/>
<path d="M34 42h1v7h-1v-7z" fill="rgb(0,0,0)"/>
<path d="M51 42h1v5h-1v-5z" fill="rgb(0,0,0)"/>
<path d="M76 42h1v1h-1v-1z" fill="rgb(0,0,0)"/>
<path d="M77 42h1v1h-1v-1z" fill="rgb(194,184,184)"/>
<path d="M16 43h1v3h-1v-3z" fill="rgb(255,157,0)"/>
<path d="M22 43h5v1h-5v-1z" fill="rgb(0,0,0)"/>
<path d="M57 43h8v1h-8v-1z" fill="rgb(0,0,0)"/>
<path d="M74 43h1v1h1v1h-1v1h-2v-1h1v-2z" fill="rgb(194,184,184)"/>
<path d="M75 43h1v1h-1v-1z" fill="rgb(0,0,0)"/>
<path d="M76 43h1v1h-1v-1z" fill="rgb(255,255,255)"/>
<path d="M77 43h1v1h-1v-1z" fill="rgb(0,0,0)"/>
<path d="M78 43h1v1h-1v-1z" fill="rgb(194,184,184)"/>
<path d="M21 44h1v1h-1v-1z" fill="rgb(0,0,0)"/>
<path d="M56 44h1v1h-1v-1z" fill="rgb(0,0,0)"/>
<path d="M57 44h2v1h-1v1h-1v1h-1v-2h1v-1z" fill="rgb(227,4,4)"/>
<path d="M59 44h4v1h-4v-1z" fill="rgb(212,47,47)"/>
<path d="M63 44h2v1h-2v-1z" fill="rgb(227,4,4)"/>
<path d="M65 44h1v1h-1v-1z" fill="rgb(0,0,0)"/>
<path d="M76 44h1v1h-1v-1z" fill="rgb(0,0,0)"/>
<path d="M77 44h1v1h-1v-1z" fill="rgb(255,255,255)"/>
<path d="M20 45h1v1h-1v-1z" fill="rgb(0,0,0)"/>
<path d="M23 45h6v1h1v1h1v2h1v2h22v-1h1v-2h1v-1h1v-1h1v-1h7v1h1v2h1v3h3v-2h1v2
	h3v1h-7v2h-1v1h-1v1h-7v-1h-1v-1h-1v-2h-24v2h-1v1h-1v1h-6v-1h-1v-1h-1v-2h-4v-1h2
	v-3h1v-1h1v-1h1v-1z" fill="rgb(0,0,0)"/>
<path d="M55 45h1v2h-1v-2z" fill="rgb(0,0,0)"/>
<path d="M65 45h1v1h-1v-1z" fill="rgb(227,4,4)"/>
<path d="M66 45h1v1h-1v-1z" fill="rgb(0,0,0)"/>
<path d="M75 45h1v1h-1v-1z" fill="rgb(0,0,0)"/>
<path d="M76 45h1v1h-1v-1z" fill="rgb(194,184,184)"/>
<path d="M19 46h1v2h-1v-2z" fill="rgb(176,0,0)"/>
<path d="M35 46h16v3h-16v-3z" fill="rgb(176,0,0)"/>
<path d="M72 46h1v1h-1v-1z" fill="rgb(255,157,0)"/>
<path d="M73 46h2v1h-1v1h-1v1h-2v-1h1v-1h1v-1z" fill="rgb(0,0,0)"/>
<path d="M75 46h1v1h-1v-1z" fill="rgb(255,255,255)"/>
<path d="M76 46h1v1h-1v-1z" fill="rgb(0,0,0)"/>
<path d="M77 46h1v2h-1v1h-1v-2h1v-1z" fill="rgb(194,184,184)"/>
<path d="M51 47h1v2h-1v-2z" fill="rgb(148,3,3)"/>
<path d="M52 47h2v1h-1v1h-1v-2z" fill="rgb(176,0,0)"/>
<path d="M54 47h1v1h-1v-1z" fill="rgb(0,0,0)"/>
<path d="M55 47h1v1h-1v-1z" fill="rgb(227,4,4)"/>
<path d="M74 47h1v3h-1v1h-3v-2h2v-1h1v-1z" fill="rgb(194,184,184)"/>
<path d="M75 47h1v2h1v1h-2v-3z" fill="rgb(0,0,0)"/>
<path d="M16 48h1v2h-1v-2z" fill="rgb(194,184,184)"/>
<path d="M25 48h4v1h1v4h-1v1h-4v-1h-1v-4h1v-1z" fill="rgb(120,120,120)"/>
<path d="M53 48h1v1h-1v-1z" fill="rgb(0,0,0)"/>
<path d="M54 48h1v2h-1v1h-1v-2h1v-1z" fill="rgb(148,3,3)"/>
<path d="M59 48h4v1h1v4h-1v1h-4v-1h-1v-4h1v-1z" fill="rgb(120,120,120)"/>
<path d="M77 48h1v1h-1v-1z" fill="rgb(0,0,0)"/>
<path d="M26 49h2v1h1v2h-1v1h-2v-1h-1v-2h1v-1z" fill="rgb(0,0,0)"/>
<path d="M35 49h18v1h-18v-1z" fill="rgb(0,0,0)"/>
<path d="M60 49h2v1h1v2h-1v1h-2v-1h-1v-2h1v-1z" fill="rgb(0,0,0)"/>
<path d="M74 50h1v1h-1v-1z" fill="rgb(0,0,0)"/>
<path d="M4 64h88v13h-88v-13z" fill="rgb(0,0,0)"/>
<path d="M5 65h86v11h-86v-11z" fill="rgb(255,255,255)"/>
<path d="M9 68h1v4h3v1h-4v-5z" fill="rgb(0,0,0)"/>
<path d="M14 68h3v1h-1v3h1v1h-3v-1h1v-3h-1v-1z" fill="rgb(0,0,0)"/>
<path d="M18 68h5v1h-2v4h-1v-4h-2v-1z" fill="rgb(0,0,0)"/>
<path d="M24 68h4v1h-3v1h2v1h-2v1h3v1h-4v-5z" fill="rgb(0,0,0)"/>
<path d="M29 68h3v1h-2v1h2v2h-1v-1h-1v2h-1v-5z" fill="rgb(0,0,0)"/>
<path d="M35 68h2v1h-2v-1z" fill="rgb(0,0,0)"/>
<path d="M39 68h1v4h3v1h-4v-5z" fill="rgb(0,0,0)"/>
<path d="M44 68h1v4h3v1h-4v-5z" fill="rgb(0,0,0)"/>
<path d="M49 68h1v2h-1v-2z" fill="rgb(0,0,0)"/>
<path d="M53 68h1v2h-1v-2z" fill="rgb(0,0,0)"/>
<path d="M61 68h2v1h-2v-1z" fill="rgb(0,0,0)"/>
<path d="M71 68h2v1h-2v-1z" fill="rgb(0,0,0)"/>
<path d="M76 68h2v1h-2v-1z" fill="rgb(0,0,0)"/>
<path d="M80 68h3v1h-2v1h2v2h-1v-1h-1v2h-1v-5z" fill="rgb(0,0,0)"/>
<path d="M30 69h2v1h-2v-1z" fill="rgb(255,255,255)"/>
<path d="M32 69h1v1h-1v-1z" fill="rgb(0,0,0)"/>
<path d="M34 69h1v1h2v-1h1v4h-1v-2h-2v2h-1v-4z" fill="rgb(0,0,0)"/>
<path d="M35 69h2v1h-2v-1z" fill="rgb(255,255,255)"/>
<path d="M60 69h1v1h2v-1h1v4h-1v-2h-2v2h-1v-4z" fill="rgb(0,0,0)"/>
<path d="M61 69h2v1h-2v-1z" fill="rgb(255,255,255)"/>
<path d="M70 69h1v3h-1v-3z" fill="rgb(0,0,0)"/>
<path d="M73 69h1v1h-1v-1z" fill="rgb(0,0,0)"/>
<path d="M75 69h1v1h2v-1h1v4h-1v-2h-2v2h-1v-4z" fill="rgb(0,0,0)"/>
<path d="M76 69h2v1h-2v-1z" fill="rgb(255,255,255)"/>
<path d="M81 69h2v1h-2v-1z" fill="rgb(255,255,255)"/>
<path d="M83 69h1v1h-1v-1z" fill="rgb(0,0,0)"/>
<path d="M50 70h3v1h-1v2h-1v-2h-1v-1z" fill="rgb(0,0,0)"/>
<path d="M73 71h1v1h-1v-1z" fill="rgb(0,0,0)"/>
<path d="M32 72h1v1h-1v-1z" fill="rgb(0,0,0)"/>
<path d="M71 72h2v1h-2v-1z" fill="rgb(0,0,0)"/>
<path d="M83 72h1v1h-1v-1z" fill="rgb(0,0,0)"/>
<path d="M6 77h84v33h-15v12h-56v-12h-13v-33z" fill="rgb(255,255,255)"/>
<path d="M1 110h18v17h-18v-17z" fill="rgb(244,67,54)"/>
<path d="M75 110h20v17h-20v-17z" fill="rgb(33,150,243)"/>
<path d="M8 115h2v1h-2v-1z" fill="rgb(0,0,0)"/>
<path d="M83 115h2v1h-2v-1z" fill="rgb(0,0,0)"/>
<path d="M7 116h1v1h2v1h-2v1h-1v-3z" fill="rgb(0,0,0)"/>
<path d="M82 116h1v1h2v1h-2v1h-1v-3z" fill="rgb(0,0,0)"/>
<path d="M8 118h2v1h-2v-1z" fill="rgb(244,67,54)"/>
<path d="M10 118h1v1h-1v-1z" fill="rgb(0,0,0)"/>
<path d="M83 118h2v1h-2v-1z" fill="rgb(33,150,243)"/>
<path d="M85 118h1v1h-1v-1z" fill="rgb(0,0,0)"/>
<path d="M8 119h2v1h-2v-1z" fill="rgb(0,0,0)"/>
<path d="M83 119h2v1h-2v-1z" fill="rgb(0,0,0)"/>
<path d="M19 122h56v3h-56v-3z" fill="rgb(121,85,72)"/>
</svg>