<?xml version="1.0" encoding="utf-8"?>
<!-- generated at drububu.com  -->
<!DOCTYPE svg PUBLIC "-//W3C//DTD SVG 1.1//EN" "http://www.w3.org/Graphics/SVG/1.1/DTD/svg11.dtd">
<svg version="1.1" preserveAspectRatio="xMinYMin meet" xmlns="http://www.w3.org/2000/svg" xmlns:xlink="http://www.w3.org/1999/xlink" x="0px" y="0px" width="96px" height="128px" viewBox="0 0 96 128">
<path d="M0 0h96v128h-96v-128z" fill="rgb(255,255,255)"/>
<path d="M4 2h23v11h-23v-11z" fill="rgb(244,67,54)"/>
<path d="M34 2h27v11h-27v-11z" fill="rgb(76,175,80)"/>
<path d="M69 2h24v11h-24v-11z" fill="rgb(33,150,243)"/>
<path d="M2 5h2v8h23v-8h7v8h27v-8h8v8h24v-8h1v105h-4v-33h2v-13h-88v13h2v33h-4
	v-105z" fill="rgb(121,85,72)"/>
<path d="M14 5h2v1h-2v-1z" fill="rgb(0,0,0)"/>
<path d="M48 5h1v3h1v1h-1v1h-1v-1h-2v-2h1v-1h1v-1z" fill="rgb(0,0,0)"/>
<path d="M80 5h2v1h-2v-1z" fill="rgb(0,0,0)"/>
<path d="M13 6h1v1h-1v-1z" fill="rgb(0,0,0)"/>
<path d="M16 6h1v1h-1v-1z" fill="rgb(0,0,0)"/>
<path d="M79 6h1v3h-1v-3z" fill="rgb(0,0,0)"/>
<path d="M80 6h2v3h-2v-3z" fill="rgb(33,150,243)"/>
<path d="M82 6h1v3h-1v-3z" fill="rgb(0,0,0)"/>
<path d="M15 7h1v1h-1v-1z" fill="rgb(0,0,0)"/>
<path d="M47 7h1v1h-1v-1z" fill="rgb(76,175,80)"/>
<path d="M14 8h1v1h2v1h-4v-1h1v-1z" fill="rgb(0,0,0)"/>
<path d="M80 9h2v1h-2v-1z" fill="rgb(0,0,0)"/>
<path d="M8 17h79v44h-79v-44z" fill="rgb(0,0,0)"/>
<path d="M9 18h77v42h-77v-42z" fill="rgb(255,255,255)"/>
<path d="M57 24h1v3h-3v-1h2v-2z" fill="rgb(231,76,60)"/>
<path d="M59 24h1v2h2v1h-3v-3z" fill="rgb(231,76,60)"/>
<path d="M55 28h3v3h-1v-2h-2v-1z" fill="rgb(231,76,60)"/>
<path d="M59 28h3v1h-2v2h-1v-3z" fill="rgb(231,76,60)"/>
<path d="M42 30h10v2h4v8h-2v-2h-2v-4h-12v-2h2v-2z" fill="rgb(13,181,38)"/>
<path d="M30 34h2v1h1v1h1v1h1v1h1v1h1v1h1v1h1v1h-1v1h-1v-1h-1v-1h-1v-1h-1v-1h-1
	v-1h-1v-1h-1v-1h-1v-2z" fill="rgb(133,134,140)"/>
<path d="M40 34h4v2h-4v-2z" fill="rgb(224,198,27)"/>
<path d="M44 34h4v2h-4v-2z" fill="rgb(227,240,152)"/>
<path d="M48 34h4v2h-4v-2z" fill="rgb(224,198,27)"/>
<path d="M42 36h2v2h-2v-2z" fill="rgb(0,0,0)"/>
<path d="M44 36h4v2h-4v-2z" fill="rgb(182,192,122)"/>
<path d="M48 36h2v2h-2v-2z" fill="rgb(0,0,0)"/>
<path d="M50 36h2v4h-10v-2h8v-2z" fill="rgb(227,240,152)"/>
<path d="M52 38h2v3h-1v-1h-1v-2z" fill="rgb(255,255,255)"/>
<path d="M40 40h1v2h-1v-2z" fill="rgb(31,46,143)"/>
<path d="M42 40h2v2h2v2h2v2h-6v-6z" fill="rgb(13,181,38)"/>
<path d="M44 40h2v2h-2v-2z" fill="rgb(97,62,11)"/>
<path d="M46 40h6v6h-2v-2h-2v-2h-2v-2z" fill="rgb(13,181,38)"/>
<path d="M52 40h1v1h1v-1h2v1h1v-1h1v5h-1v1h-4v-1h-1v-5z" fill="rgb(94,91,87)"/>
<path d="M38 42h2v2h-2v-2z" fill="rgb(31,46,143)"/>
<path d="M46 42h2v2h-2v-2z" fill="rgb(97,62,11)"/>
<path d="M36 44h2v1h-2v-1z" fill="rgb(31,46,143)"/>
<path d="M40 44h2v2h-2v-2z" fill="rgb(31,46,143)"/>
<path d="M48 44h2v2h1v2h-3v-4z" fill="rgb(97,62,11)"/>
<path d="M43 46h3v2h-3v-2z" fill="rgb(97,62,11)"/>
<path d="M4 64h88v13h-88v-13z" fill="rgb(0,0,0)"/>
<path d="M5 65h86v11h-86v-11z" fill="rgb(255,255,255)"/>
<path d="M8 68h2v1h-2v-1z" fill="rgb(0,0,0)"/>
<path d="M12 68h1v1h1v1h-1v3h-1v-5z" fill="rgb(0,0,0)"/>
<path d="M15 68h1v5h-1v-2h-1v-1h1v-2z" fill="rgb(0,0,0)"/>
<path d="M18 68h2v1h-2v-1z" fill="rgb(0,0,0)"/>
<path d="M22 68h3v1h-2v1h2v2h-1v-1h-1v2h-1v-5z" fill="rgb(0,0,0)"/>
<path d="M27 68h1v2h-1v-2z" fill="rgb(0,0,0)"/>
<path d="M31 68h1v2h-1v-2z" fill="rgb(0,0,0)"/>
<path d="M39 68h2v1h-2v-1z" fill="rgb(0,0,0)"/>
<path d="M43 68h3v1h-2v1h2v2h-1v-1h-1v2h-1v-5z" fill="rgb(0,0,0)"/>
<path d="M48 68h4v1h-3v1h2v1h-2v1h3v1h-4v-5z" fill="rgb(0,0,0)"/>
<path d="M53 68h4v1h-3v1h2v1h-2v1h3v1h-4v-5z" fill="rgb(0,0,0)"/>
<path d="M58 68h1v1h1v1h-1v3h-1v-5z" fill="rgb(0,0,0)"/>
<path d="M61 68h1v5h-1v-2h-1v-1h1v-2z" fill="rgb(0,0,0)"/>
<path d="M68 68h3v1h-2v3h2v1h-3v-5z" fill="rgb(0,0,0)"/>
<path d="M73 68h1v4h-1v-4z" fill="rgb(0,0,0)"/>
<path d="M76 68h1v4h-1v-4z" fill="rgb(0,0,0)"/>
<path d="M78 68h3v1h-2v3h2v1h-3v-5z" fill="rgb(0,0,0)"/>
<path d="M83 68h4v1h-3v1h2v1h-2v1h3v1h-4v-5z" fill="rgb(0,0,0)"/>
<path d="M7 69h1v1h2v-1h1v4h-1v-2h-2v2h-1v-4z" fill="rgb(0,0,0)"/>
<path d="M8 69h2v1h-2v-1z" fill="rgb(255,255,255)"/>
<path d="M17 69h1v3h-1v-3z" fill="rgb(0,0,0)"/>
<path d="M23 69h2v1h-2v-1z" fill="rgb(255,255,255)"/>
<path d="M25 69h1v1h-1v-1z" fill="rgb(0,0,0)"/>
<path d="M38 69h1v3h-1v-3z" fill="rgb(0,0,0)"/>
<path d="M44 69h2v1h-2v-1z" fill="rgb(255,255,255)"/>
<path d="M46 69h1v1h-1v-1z" fill="rgb(0,0,0)"/>
<path d="M69 69h2v3h-2v-3z" fill="rgb(255,255,255)"/>
<path d="M71 69h1v3h-1v-3z" fill="rgb(0,0,0)"/>
<path d="M79 69h2v3h-2v-3z" fill="rgb(255,255,255)"/>
<path d="M81 69h1v3h-1v-3z" fill="rgb(0,0,0)"/>
<path d="M19 70h2v2h-1v-1h-1v-1z" fill="rgb(0,0,0)"/>
<path d="M28 70h3v1h-1v2h-1v-2h-1v-1z" fill="rgb(0,0,0)"/>
<path d="M40 70h2v2h-1v-1h-1v-1z" fill="rgb(0,0,0)"/>
<path d="M18 72h2v1h-2v-1z" fill="rgb(0,0,0)"/>
<path d="M25 72h1v1h-1v-1z" fill="rgb(0,0,0)"/>
<path d="M39 72h2v1h-2v-1z" fill="rgb(0,0,0)"/>
<path d="M46 72h1v1h-1v-1z" fill="rgb(0,0,0)"/>
<path d="M74 72h2v1h-2v-1z" fill="rgb(0,0,0)"/>
<path d="M6 77h84v33h-15v12h-56v-12h-13v-33z" fill="rgb(255,255,255)"/>
<path d="M34 94h2v1h-2v-1z" fill="rgb(0,0,0)"/>
<path d="M38 94h1v2h2v-2h1v5h-1v-2h-2v2h-1v-5z" fill="rgb(0,0,0)"/>
<path d="M44 94h2v1h-2v-1z" fill="rgb(0,0,0)"/>
<path d="M48 94h3v1h-2v1h2v2h-1v-1h-1v2h-1v-5z" fill="rgb(0,0,0)"/>
<path d="M54 94h2v1h-2v-1z" fill="rgb(0,0,0)"/>
<path d="M58 94h4v1h-3v1h2v1h-2v1h3v1h-4v-5z" fill="rgb(0,0,0)"/>
<path d="M33 95h1v3h-1v-3z" fill="rgb(0,0,0)"/>
<path d="M36 95h1v1h-1v-1z" fill="rgb(0,0,0)"/>
<path d="M43 95h1v1h2v-1h1v4h-1v-2h-2v2h-1v-4z" fill="rgb(0,0,0)"/>
<path d="M44 95h2v1h-2v-1z" fill="rgb(255,255,255)"/>
<path d="M49 95h2v1h-2v-1z" fill="rgb(255,255,255)"/>
<path d="M51 95h1v1h-1v-1z" fill="rgb(0,0,0)"/>
<path d="M53 95h1v3h-1v-3z" fill="rgb(0,0,0)"/>
<path d="M55 96h2v2h-1v-1h-1v-1z" fill="rgb(0,0,0)"/>
<path d="M36 97h1v1h-1v-1z" fill="rgb(0,0,0)"/>
<path d="M34 98h2v1h-2v-1z" fill="rgb(0,0,0)"/>
<path d="M51 98h1v1h-1v-1z" fill="rgb(0,0,0)"/>
<path d="M54 98h2v1h-2v-1z" fill="rgb(0,0,0)"/>
<path d="M1 110h18v17h-18v-17z" fill="rgb(244,67,54)"/>
<path d="M75 110h20v17h-20v-17z" fill="rgb(33,150,243)"/>
<path d="M9 115h2v1h-2v-1z" fill="rgb(0,0,0)"/>
<path d="M83 115h2v1h-2v-1z" fill="rgb(0,0,0)"/>
<path d="M8 116h1v1h2v1h-2v1h-1v-3z" fill="rgb(0,0,0)"/>
<path d="M82 116h1v1h-1v-1z" fill="rgb(0,0,0)"/>
<path d="M85 116h1v1h-1v-1z" fill="rgb(0,0,0)"/>
<path d="M84 117h1v1h-1v-1z" fill="rgb(0,0,0)"/>
<path d="M9 118h2v1h-2v-1z" fill="rgb(244,67,54)"/>
<path d="M11 118h1v1h-1v-1z" fill="rgb(0,0,0)"/>
<path d="M83 118h1v1h2v1h-4v-1h1v-1z" fill="rgb(0,0,0)"/>
<path d="M9 119h2v1h-2v-1z" fill="rgb(0,0,0)"/>
<path d="M19 122h56v3h-56v-3z" fill="rgb(121,85,72)"/>
</svg>