<?xml version="1.0" encoding="utf-8"?>
<!-- generated at drububu.com  -->
<!DOCTYPE svg PUBLIC "-//W3C//DTD SVG 1.1//EN" "http://www.w3.org/Graphics/SVG/1.1/DTD/svg11.dtd">
<svg version="1.1" preserveAspectRatio="xMinYMin meet" xmlns="http://www.w3.org/2000/svg" xmlns:xlink="http://www.w3.org/1999/xlink" x="0px" y="0px" width="96px" height="128px" viewBox="0 0 96 128">
<path d="M0 0h96v128h-96v-128z" fill="rgb(255,255,255)"/>
<path d="M4 2h23v11h-23v-11z" fill="rgb(244,67,54)"/>
<path d="M34 2h27v11h-27v-11z" fill="rgb(76,175,80)"/>
<path d="M69 2h24v11h-24v-11z" fill="rgb(33,150,243)"/>
<path d="M2 5h2v8h23v-8h7v8h27v-8h8v8h24v-8h1v105h-4v-33h2v-13h-88v13h2v33h-4
	v-105z" fill="rgb(121,85,72)"/>
<path d="M14 5h2v1h-2v-1z" fill="rgb(0,0,0)"/>
<path d="M48 5h2v1h-2v-1z" fill="rgb(0,0,0)"/>
<path d="M80 5h1v3h1v1h-1v1h-1v-1h-2v-2h1v-1h1v-1z" fill="rgb(0,0,0)"/>
<path d="M13 6h1v3h-1v-3z" fill="rgb(0,0,0)"/>
<path d="M14 6h2v3h-2v-3z" fill="rgb(244,67,54)"/>
<path d="M16 6h1v3h-1v-3z" fill="rgb(0,0,0)"/>
<path d="M47 6h1v3h-1v-3z" fill="rgb(0,0,0)"/>
<path d="M48 6h2v3h-2v-3z" fill="rgb(76,175,80)"/>
<path d="M50 6h1v3h-1v-3z" fill="rgb(0,0,0)"/>
<path d="M79 7h1v1h-1v-1z" fill="rgb(33,150,243)"/>
<path d="M14 9h2v1h-2v-1z" fill="rgb(0,0,0)"/>
<path d="M48 9h2v1h-2v-1z" fill="rgb(0,0,0)"/>
<path d="M8 17h79v44h-79v-44z" fill="rgb(0,0,0)"/>
<path d="M9 18h77v42h-77v-42z" fill="rgb(255,255,255)"/>
<path d="M28 19h2v5h-1v3h-3v-3h1v-3h1v-2z" fill="rgb(204,102,53)"/>
<path d="M42 19h1v8h-14v-3h13v-5z" fill="rgb(255,153,104)"/>
<path d="M43 19h1v1h1v1h1v2h1v2h1v2h-5v-8z" fill="rgb(204,102,53)"/>
<path d="M30 21h2v1h2v2h-4v-3z" fill="rgb(255,128,66)"/>
<path d="M47 23h1v2h-1v-2z" fill="rgb(255,128,66)"/>
<path d="M24 27h24v4h2v6h-1v1h-1v1h-1v1h2v-1h1v-1h8v-2h6v1h-1v1h1v1h2v2h2v2h-1
	v2h-1v9h-1v1h-2v-1h-1v-1h-2v-4h-14v2h-4v2h-1v-2h-1v-2h-4v-2h4v-2h2v-6h2v-10h-16
	v2h-4v-4z" fill="rgb(191,151,106)"/>
<path d="M48 27h2v4h-2v-4z" fill="rgb(255,128,66)"/>
<path d="M28 29h2v2h-2v-2z" fill="rgb(62,6,66)"/>
<path d="M30 29h10v2h2v-2h2v6h-2v-2h-6v-2h-6v-2z" fill="rgb(255,153,104)"/>
<path d="M40 29h2v2h-2v-2z" fill="rgb(62,6,66)"/>
<path d="M22 31h2v6h-2v-6z" fill="rgb(191,151,106)"/>
<path d="M24 31h10v2h-4v2h-2v-2h-4v-2z" fill="rgb(97,9,104)"/>
<path d="M34 31h2v2h4v2h-10v-2h4v-2z" fill="rgb(239,189,133)"/>
<path d="M50 31h2v2h2v4h-4v-6z" fill="rgb(255,128,66)"/>
<path d="M70 31h1v6h-1v2h-4v-2h2v-2h2v-4z" fill="rgb(255,128,66)"/>
<path d="M24 33h4v2h-4v-2z" fill="rgb(239,189,133)"/>
<path d="M40 33h2v2h-2v-2z" fill="rgb(62,6,66)"/>
<path d="M68 33h2v2h-2v-2z" fill="rgb(255,153,104)"/>
<path d="M54 34h2v2h2v2h-8v1h-1v1h-2v-1h1v-1h1v-1h5v-3z" fill="rgb(204,102,53)"/>
<path d="M24 35h4v2h-4v-2z" fill="rgb(62,6,66)"/>
<path d="M28 35h2v2h10v-2h4v4h-2v6h-2v2h-4v2h-6v-2h-2v-8h-4v-2h4v-2z" fill="rgb(239,189,133)"/>
<path d="M30 35h10v2h-10v-2z" fill="rgb(62,6,66)"/>
<path d="M64 35h4v2h-2v2h-2v-1h-1v-1h1v-2z" fill="rgb(255,153,104)"/>
<path d="M70 37h1v2h-1v-2z" fill="rgb(204,102,53)"/>
<path d="M66 39h4v2h-4v-2z" fill="rgb(204,102,53)"/>
<path d="M28 47h2v2h2v2h-1v2h-3v-6z" fill="rgb(191,151,106)"/>
<path d="M32 49h8v3h-6v7h-3v-8h1v-2z" fill="rgb(204,102,53)"/>
<path d="M46 49h2v2h-2v-2z" fill="rgb(255,153,104)"/>
<path d="M48 49h7v1h5v3h-6v-3h-6v-1z" fill="rgb(204,102,53)"/>
<path d="M55 49h5v1h-5v-1z" fill="rgb(255,128,66)"/>
<path d="M66 49h2v7h-2v-1h-1v-1h1v-5z" fill="rgb(255,128,66)"/>
<path d="M40 51h1v2h1v3h-2v-5z" fill="rgb(255,128,66)"/>
<path d="M42 51h4v2h-4v-2z" fill="rgb(255,153,104)"/>
<path d="M42 53h1v6h-3v-3h2v-3z" fill="rgb(204,102,53)"/>
<path d="M60 53h2v1h1v2h-3v-3z" fill="rgb(255,128,66)"/>
<path d="M65 55h1v1h2v3h-3v-4z" fill="rgb(204,102,53)"/>
<path d="M60 56h3v3h-3v-3z" fill="rgb(204,102,53)"/>
<path d="M4 64h88v13h-88v-13z" fill="rgb(0,0,0)"/>
<path d="M5 65h86v11h-86v-11z" fill="rgb(255,255,255)"/>
<path d="M39 68h3v1h-2v3h2v1h-3v-5z" fill="rgb(0,0,0)"/>
<path d="M45 68h2v1h-2v-1z" fill="rgb(0,0,0)"/>
<path d="M50 68h2v1h-2v-1z" fill="rgb(0,0,0)"/>
<path d="M54 68h4v1h-3v1h2v1h-2v1h3v1h-4v-5z" fill="rgb(0,0,0)"/>
<path d="M40 69h2v3h-2v-3z" fill="rgb(255,255,255)"/>
<path d="M42 69h1v3h-1v-3z" fill="rgb(0,0,0)"/>
<path d="M44 69h1v3h-1v-3z" fill="rgb(0,0,0)"/>
<path d="M45 69h2v3h-2v-3z" fill="rgb(255,255,255)"/>
<path d="M47 69h1v3h-1v-3z" fill="rgb(0,0,0)"/>
<path d="M49 69h1v3h-1v-3z" fill="rgb(0,0,0)"/>
<path d="M51 70h2v2h-1v-1h-1v-1z" fill="rgb(0,0,0)"/>
<path d="M45 72h2v1h-2v-1z" fill="rgb(0,0,0)"/>
<path d="M50 72h2v1h-2v-1z" fill="rgb(0,0,0)"/>
<path d="M6 77h84v33h-15v12h-56v-12h-13v-33z" fill="rgb(255,255,255)"/>
<path d="M1 110h18v17h-18v-17z" fill="rgb(244,67,54)"/>
<path d="M75 110h20v17h-20v-17z" fill="rgb(33,150,243)"/>
<path d="M7 116h4v1h-3v1h2v1h-3v-3z" fill="rgb(0,0,0)"/>
<path d="M84 116h2v1h-2v-1z" fill="rgb(0,0,0)"/>
<path d="M83 117h1v1h-1v-1z" fill="rgb(0,0,0)"/>
<path d="M86 117h1v1h-1v-1z" fill="rgb(0,0,0)"/>
<path d="M85 118h1v1h-1v-1z" fill="rgb(0,0,0)"/>
<path d="M10 119h1v1h-1v-1z" fill="rgb(0,0,0)"/>
<path d="M84 119h1v1h2v1h-4v-1h1v-1z" fill="rgb(0,0,0)"/>
<path d="M7 120h3v1h-3v-1z" fill="rgb(0,0,0)"/>
<path d="M19 122h56v3h-56v-3z" fill="rgb(121,85,72)"/>
</svg>