<?xml version="1.0" encoding="utf-8"?>
<!-- generated at drububu.com  -->
<!DOCTYPE svg PUBLIC "-//W3C//DTD SVG 1.1//EN" "http://www.w3.org/Graphics/SVG/1.1/DTD/svg11.dtd">
<svg version="1.1" preserveAspectRatio="xMinYMin meet" xmlns="http://www.w3.org/2000/svg" xmlns:xlink="http://www.w3.org/1999/xlink" x="0px" y="0px" width="96px" height="128px" viewBox="0 0 96 128">
<path d="M0 0h96v128h-96v-128z" fill="rgb(255,255,255)"/>
<path d="M4 2h23v11h-23v-11z" fill="rgb(244,67,54)"/>
<path d="M34 2h27v11h-27v-11z" fill="rgb(76,175,80)"/>
<path d="M69 2h24v11h-24v-11z" fill="rgb(33,150,243)"/>
<path d="M2 5h2v8h23v-8h7v8h27v-8h8v8h24v-8h1v105h-4v-33h2v-13h-88v13h2v33h-4
	v-105z" fill="rgb(121,85,72)"/>
<path d="M14 5h2v1h-2v-1z" fill="rgb(0,0,0)"/>
<path d="M46 5h1v4h1v1h-3v-1h1v-2h-1v-1h1v-1z" fill="rgb(0,0,0)"/>
<path d="M80 5h2v1h-2v-1z" fill="rgb(0,0,0)"/>
<path d="M13 6h1v1h-1v-1z" fill="rgb(0,0,0)"/>
<path d="M16 6h1v1h-1v-1z" fill="rgb(0,0,0)"/>
<path d="M79 6h1v3h-1v-3z" fill="rgb(0,0,0)"/>
<path d="M80 6h2v3h-2v-3z" fill="rgb(33,150,243)"/>
<path d="M82 6h1v3h-1v-3z" fill="rgb(0,0,0)"/>
<path d="M15 7h1v1h-1v-1z" fill="rgb(0,0,0)"/>
<path d="M14 8h1v1h2v1h-4v-1h1v-1z" fill="rgb(0,0,0)"/>
<path d="M80 9h2v1h-2v-1z" fill="rgb(0,0,0)"/>
<path d="M8 17h79v44h-79v-44z" fill="rgb(0,0,0)"/>
<path d="M9 18h77v42h-77v-42z" fill="rgb(255,255,255)"/>
<path d="M35 24h2v2h-2v-2z" fill="rgb(97,97,97)"/>
<path d="M45 24h2v2h-2v-2z" fill="rgb(97,97,97)"/>
<path d="M33 26h2v4h-2v-4z" fill="rgb(97,97,97)"/>
<path d="M35 26h2v2h2v4h1v-2h2v2h1v-4h2v-2h2v2h2v2h2v2h-4v2h8v-4h2v4h4v-2h2v2h2
	v4h2v10h-2v-2h-4v2h-6v2h-2v2h-18v-2h-2v-2h-2v-12h2v-6h2v-4z" fill="rgb(125,125,125)"/>
<path d="M37 26h2v2h-2v-2z" fill="rgb(97,97,97)"/>
<path d="M43 26h2v2h-2v-2z" fill="rgb(97,97,97)"/>
<path d="M47 26h2v2h-2v-2z" fill="rgb(97,97,97)"/>
<path d="M39 28h4v4h-1v-2h-2v2h-1v-4z" fill="rgb(97,97,97)"/>
<path d="M49 28h10v2h4v2h-2v2h-4v-4h-2v4h-8v-2h4v-2h-2v-2z" fill="rgb(97,97,97)"/>
<path d="M31 30h2v6h-2v-2h-4v-2h4v-2z" fill="rgb(97,97,97)"/>
<path d="M63 32h2v2h-2v-2z" fill="rgb(97,97,97)"/>
<path d="M35 34h2v2h-2v-2z" fill="rgb(0,0,0)"/>
<path d="M43 34h2v2h-2v-2z" fill="rgb(0,0,0)"/>
<path d="M65 34h2v4h-2v-4z" fill="rgb(97,97,97)"/>
<path d="M27 36h4v12h-2v-10h-2v-2z" fill="rgb(97,97,97)"/>
<path d="M39 36h2v2h2v2h-6v-2h2v-2z" fill="rgb(0,0,0)"/>
<path d="M47 36h4v2h-4v-2z" fill="rgb(97,97,97)"/>
<path d="M67 38h2v10h-2v-10z" fill="rgb(97,97,97)"/>
<path d="M61 46h4v2h-2v2h-4v2h4v2h-28v-2h18v-2h2v-2h6v-2z" fill="rgb(97,97,97)"/>
<path d="M31 48h2v2h-2v-2z" fill="rgb(97,97,97)"/>
<path d="M63 48h2v2h-2v-2z" fill="rgb(125,125,125)"/>
<path d="M65 48h2v2h-2v-2z" fill="rgb(97,97,97)"/>
<path d="M33 50h2v2h-2v-2z" fill="rgb(97,97,97)"/>
<path d="M55 50h2v2h-2v-2z" fill="rgb(125,125,125)"/>
<path d="M59 50h4v2h-4v-2z" fill="rgb(125,125,125)"/>
<path d="M63 50h2v2h-2v-2z" fill="rgb(97,97,97)"/>
<path d="M4 64h88v13h-88v-13z" fill="rgb(0,0,0)"/>
<path d="M5 65h86v11h-86v-11z" fill="rgb(255,255,255)"/>
<path d="M23 68h4v1h-3v1h2v1h-2v1h3v1h-4v-5z" fill="rgb(0,0,0)"/>
<path d="M28 68h1v2h-1v-2z" fill="rgb(0,0,0)"/>
<path d="M32 68h1v2h-1v-2z" fill="rgb(0,0,0)"/>
<path d="M34 68h3v1h-1v3h1v1h-3v-1h1v-3h-1v-1z" fill="rgb(0,0,0)"/>
<path d="M38 68h1v4h3v1h-4v-5z" fill="rgb(0,0,0)"/>
<path d="M48 68h1v2h1v1h-1v2h-1v-5z" fill="rgb(0,0,0)"/>
<path d="M51 68h1v1h-1v-1z" fill="rgb(0,0,0)"/>
<path d="M53 68h3v1h-1v3h1v1h-3v-1h1v-3h-1v-1z" fill="rgb(0,0,0)"/>
<path d="M57 68h5v1h-2v4h-1v-4h-2v-1z" fill="rgb(0,0,0)"/>
<path d="M63 68h5v1h-2v4h-1v-4h-2v-1z" fill="rgb(0,0,0)"/>
<path d="M69 68h1v2h-1v-2z" fill="rgb(0,0,0)"/>
<path d="M73 68h1v2h-1v-2z" fill="rgb(0,0,0)"/>
<path d="M50 69h1v1h-1v-1z" fill="rgb(0,0,0)"/>
<path d="M29 70h1v2h-1v-2z" fill="rgb(0,0,0)"/>
<path d="M31 70h1v2h-1v-2z" fill="rgb(0,0,0)"/>
<path d="M70 70h3v1h-1v2h-1v-2h-1v-1z" fill="rgb(0,0,0)"/>
<path d="M50 71h1v1h-1v-1z" fill="rgb(0,0,0)"/>
<path d="M30 72h1v1h-1v-1z" fill="rgb(0,0,0)"/>
<path d="M51 72h1v1h-1v-1z" fill="rgb(0,0,0)"/>
<path d="M6 77h84v33h-15v12h-56v-12h-13v-33z" fill="rgb(255,255,255)"/>
<path d="M25 87h3v1h-2v1h2v1h-2v1h2v1h-3v-5z" fill="rgb(0,0,0)"/>
<path d="M31 87h2v1h-2v-1z" fill="rgb(0,0,0)"/>
<path d="M35 87h5v1h-2v4h-1v-4h-2v-1z" fill="rgb(0,0,0)"/>
<path d="M41 87h5v1h-2v4h-1v-4h-2v-1z" fill="rgb(0,0,0)"/>
<path d="M47 87h1v4h3v1h-4v-5z" fill="rgb(0,0,0)"/>
<path d="M52 87h4v1h-3v1h2v1h-2v1h3v1h-4v-5z" fill="rgb(0,0,0)"/>
<path d="M58 87h2v1h-2v-1z" fill="rgb(0,0,0)"/>
<path d="M62 87h3v1h-2v1h2v2h-1v-1h-1v2h-1v-5z" fill="rgb(0,0,0)"/>
<path d="M67 87h1v2h-1v-2z" fill="rgb(0,0,0)"/>
<path d="M71 87h1v2h-1v-2z" fill="rgb(0,0,0)"/>
<path d="M26 88h2v1h-2v-1z" fill="rgb(255,255,255)"/>
<path d="M28 88h1v1h-1v-1z" fill="rgb(0,0,0)"/>
<path d="M30 88h1v1h2v-1h1v4h-1v-2h-2v2h-1v-4z" fill="rgb(0,0,0)"/>
<path d="M31 88h2v1h-2v-1z" fill="rgb(255,255,255)"/>
<path d="M57 88h1v3h-1v-3z" fill="rgb(0,0,0)"/>
<path d="M60 88h1v1h-1v-1z" fill="rgb(0,0,0)"/>
<path d="M63 88h2v1h-2v-1z" fill="rgb(255,255,255)"/>
<path d="M65 88h1v1h-1v-1z" fill="rgb(0,0,0)"/>
<path d="M73 88h1v1h-1v-1z" fill="rgb(0,0,0)"/>
<path d="M68 89h3v1h-1v2h-1v-2h-1v-1z" fill="rgb(0,0,0)"/>
<path d="M26 90h2v1h-2v-1z" fill="rgb(255,255,255)"/>
<path d="M28 90h1v1h-1v-1z" fill="rgb(0,0,0)"/>
<path d="M60 90h1v1h-1v-1z" fill="rgb(0,0,0)"/>
<path d="M58 91h2v1h-2v-1z" fill="rgb(0,0,0)"/>
<path d="M65 91h1v1h-1v-1z" fill="rgb(0,0,0)"/>
<path d="M73 91h1v1h-1v-1z" fill="rgb(0,0,0)"/>
<path d="M35 93h3v1h-2v3h2v1h-3v-5z" fill="rgb(0,0,0)"/>
<path d="M40 93h3v1h-2v1h2v2h-1v-1h-1v2h-1v-5z" fill="rgb(0,0,0)"/>
<path d="M46 93h2v1h-2v-1z" fill="rgb(0,0,0)"/>
<path d="M50 93h1v3h1v1h-1v1h-1v-5z" fill="rgb(0,0,0)"/>
<path d="M54 93h1v5h-1v-1h-1v-1h1v-3z" fill="rgb(0,0,0)"/>
<path d="M62 93h1v4h1v1h-3v-1h1v-2h-1v-1h1v-1z" fill="rgb(0,0,0)"/>
<path d="M36 94h2v3h-2v-3z" fill="rgb(255,255,255)"/>
<path d="M38 94h1v3h-1v-3z" fill="rgb(0,0,0)"/>
<path d="M41 94h2v1h-2v-1z" fill="rgb(255,255,255)"/>
<path d="M43 94h1v1h-1v-1z" fill="rgb(0,0,0)"/>
<path d="M45 94h1v1h2v-1h1v4h-1v-2h-2v2h-1v-4z" fill="rgb(0,0,0)"/>
<path d="M46 94h2v1h-2v-1z" fill="rgb(255,255,255)"/>
<path d="M52 95h1v1h-1v-1z" fill="rgb(0,0,0)"/>
<path d="M43 97h1v1h-1v-1z" fill="rgb(0,0,0)"/>
<path d="M41 99h2v1h-2v-1z" fill="rgb(0,0,0)"/>
<path d="M46 99h2v1h-2v-1z" fill="rgb(0,0,0)"/>
<path d="M50 99h3v1h-2v1h2v2h-1v-1h-1v2h-1v-5z" fill="rgb(0,0,0)"/>
<path d="M55 99h3v1h-2v3h2v1h-3v-5z" fill="rgb(0,0,0)"/>
<path d="M40 100h1v3h-1v-3z" fill="rgb(0,0,0)"/>
<path d="M43 100h1v1h-1v-1z" fill="rgb(0,0,0)"/>
<path d="M45 100h1v1h2v-1h1v4h-1v-2h-2v2h-1v-4z" fill="rgb(0,0,0)"/>
<path d="M46 100h2v1h-2v-1z" fill="rgb(255,255,255)"/>
<path d="M51 100h2v1h-2v-1z" fill="rgb(255,255,255)"/>
<path d="M53 100h1v1h-1v-1z" fill="rgb(0,0,0)"/>
<path d="M56 100h2v3h-2v-3z" fill="rgb(255,255,255)"/>
<path d="M58 100h1v3h-1v-3z" fill="rgb(0,0,0)"/>
<path d="M43 102h1v1h-1v-1z" fill="rgb(0,0,0)"/>
<path d="M41 103h2v1h-2v-1z" fill="rgb(0,0,0)"/>
<path d="M53 103h1v1h-1v-1z" fill="rgb(0,0,0)"/>
<path d="M1 110h18v17h-18v-17z" fill="rgb(244,67,54)"/>
<path d="M75 110h20v17h-20v-17z" fill="rgb(33,150,243)"/>
<path d="M10 116h1v4h1v1h-3v-1h1v-2h-1v-1h1v-1z" fill="rgb(0,0,0)"/>
<path d="M84 116h1v4h1v1h-3v-1h1v-2h-1v-1h1v-1z" fill="rgb(0,0,0)"/>
<path d="M19 122h56v3h-56v-3z" fill="rgb(121,85,72)"/>
</svg>