<?xml version="1.0" encoding="utf-8"?>
<!-- generated at drububu.com  -->
<!DOCTYPE svg PUBLIC "-//W3C//DTD SVG 1.1//EN" "http://www.w3.org/Graphics/SVG/1.1/DTD/svg11.dtd">
<svg version="1.1" preserveAspectRatio="xMinYMin meet" xmlns="http://www.w3.org/2000/svg" xmlns:xlink="http://www.w3.org/1999/xlink" x="0px" y="0px" width="96px" height="128px" viewBox="0 0 96 128">
<path d="M0 0h96v128h-96v-128z" fill="rgb(255,255,255)"/>
<path d="M4 2h23v11h-23v-11z" fill="rgb(244,67,54)"/>
<path d="M34 2h27v11h-27v-11z" fill="rgb(76,175,80)"/>
<path d="M69 2h24v11h-24v-11z" fill="rgb(33,150,243)"/>
<path d="M2 5h2v8h23v-8h7v8h27v-8h8v8h24v-8h1v105h-4v-33h2v-13h-88v13h2v33h-4
	v-105z" fill="rgb(121,85,72)"/>
<path d="M14 5h2v1h-2v-1z" fill="rgb(0,0,0)"/>
<path d="M48 5h2v1h-2v-1z" fill="rgb(0,0,0)"/>
<path d="M80 5h2v1h-2v-1z" fill="rgb(0,0,0)"/>
<path d="M13 6h1v1h-1v-1z" fill="rgb(0,0,0)"/>
<path d="M16 6h1v1h-1v-1z" fill="rgb(0,0,0)"/>
<path d="M47 6h1v3h-1v-3z" fill="rgb(0,0,0)"/>
<path d="M48 6h2v3h-2v-3z" fill="rgb(76,175,80)"/>
<path d="M50 6h1v3h-1v-3z" fill="rgb(0,0,0)"/>
<path d="M79 6h1v3h-1v-3z" fill="rgb(0,0,0)"/>
<path d="M80 6h2v3h-2v-3z" fill="rgb(33,150,243)"/>
<path d="M82 6h1v3h-1v-3z" fill="rgb(0,0,0)"/>
<path d="M15 7h1v1h-1v-1z" fill="rgb(0,0,0)"/>
<path d="M14 8h1v1h2v1h-4v-1h1v-1z" fill="rgb(0,0,0)"/>
<path d="M48 9h2v1h-2v-1z" fill="rgb(0,0,0)"/>
<path d="M80 9h2v1h-2v-1z" fill="rgb(0,0,0)"/>
<path d="M8 17h79v44h-79v-44z" fill="rgb(0,0,0)"/>
<path d="M9 18h77v42h-77v-42z" fill="rgb(255,255,255)"/>
<path d="M30 21h2v2h-2v-2z" fill="rgb(243,87,9)"/>
<path d="M34 23h2v4h-2v-4z" fill="rgb(243,87,9)"/>
<path d="M42 25h2v4h-2v-4z" fill="rgb(243,87,9)"/>
<path d="M42 33h2v2h-2v-2z" fill="rgb(243,87,9)"/>
<path d="M46 33h2v2h-2v-2z" fill="rgb(243,87,9)"/>
<path d="M44 35h2v2h-2v-2z" fill="rgb(243,87,9)"/>
<path d="M48 35h2v2h-2v-2z" fill="rgb(243,87,9)"/>
<path d="M52 37h2v2h-2v-2z" fill="rgb(243,87,9)"/>
<path d="M56 37h4v2h4v2h2v8h-2v2h-2v2h-8v-2h-2v-6h2v-2h4v-4h-2v-2z" fill="rgb(243,87,9)"/>
<path d="M54 39h2v2h-2v-2z" fill="rgb(243,87,9)"/>
<path d="M48 41h2v2h-2v-2z" fill="rgb(243,87,9)"/>
<path d="M60 41h2v2h2v4h-2v-2h-2v-4z" fill="rgb(243,130,10)"/>
<path d="M56 45h4v2h-2v2h2v2h-4v-2h-2v-2h2v-2z" fill="rgb(243,130,10)"/>
<path d="M60 45h2v2h-2v-2z" fill="rgb(219,226,100)"/>
<path d="M58 47h2v2h-2v-2z" fill="rgb(219,226,100)"/>
<path d="M60 47h2v2h-2v-2z" fill="rgb(243,130,10)"/>
<path d="M4 64h88v13h-88v-13z" fill="rgb(0,0,0)"/>
<path d="M5 65h86v11h-86v-11z" fill="rgb(255,255,255)"/>
<path d="M29 68h4v1h-3v1h2v1h-2v2h-1v-5z" fill="rgb(0,0,0)"/>
<path d="M34 68h3v1h-1v3h1v1h-3v-1h1v-3h-1v-1z" fill="rgb(0,0,0)"/>
<path d="M38 68h3v1h-2v1h2v2h-1v-1h-1v2h-1v-5z" fill="rgb(0,0,0)"/>
<path d="M43 68h4v1h-3v1h2v1h-2v1h3v1h-4v-5z" fill="rgb(0,0,0)"/>
<path d="M48 68h3v1h-2v1h2v1h-2v1h2v1h-3v-5z" fill="rgb(0,0,0)"/>
<path d="M54 68h2v1h-2v-1z" fill="rgb(0,0,0)"/>
<path d="M58 68h1v4h3v1h-4v-5z" fill="rgb(0,0,0)"/>
<path d="M63 68h1v4h3v1h-4v-5z" fill="rgb(0,0,0)"/>
<path d="M39 69h2v1h-2v-1z" fill="rgb(255,255,255)"/>
<path d="M41 69h1v1h-1v-1z" fill="rgb(0,0,0)"/>
<path d="M49 69h2v1h-2v-1z" fill="rgb(255,255,255)"/>
<path d="M51 69h1v1h-1v-1z" fill="rgb(0,0,0)"/>
<path d="M53 69h1v1h2v-1h1v4h-1v-2h-2v2h-1v-4z" fill="rgb(0,0,0)"/>
<path d="M54 69h2v1h-2v-1z" fill="rgb(255,255,255)"/>
<path d="M49 71h2v1h-2v-1z" fill="rgb(255,255,255)"/>
<path d="M51 71h1v1h-1v-1z" fill="rgb(0,0,0)"/>
<path d="M41 72h1v1h-1v-1z" fill="rgb(0,0,0)"/>
<path d="M6 77h84v33h-15v12h-56v-12h-13v-33z" fill="rgb(255,255,255)"/>
<path d="M17 91h3v1h-2v3h2v1h-3v-5z" fill="rgb(0,0,0)"/>
<path d="M22 91h4v1h-3v1h2v1h-2v1h3v1h-4v-5z" fill="rgb(0,0,0)"/>
<path d="M28 91h2v1h-2v-1z" fill="rgb(0,0,0)"/>
<path d="M32 91h1v4h3v1h-4v-5z" fill="rgb(0,0,0)"/>
<path d="M43 91h2v1h-2v-1z" fill="rgb(0,0,0)"/>
<path d="M52 91h3v1h-2v3h2v1h-3v-5z" fill="rgb(0,0,0)"/>
<path d="M58 91h2v1h-2v-1z" fill="rgb(0,0,0)"/>
<path d="M62 91h1v1h1v1h-1v3h-1v-5z" fill="rgb(0,0,0)"/>
<path d="M66 91h1v5h-1v-3h-1v-1h1v-1z" fill="rgb(0,0,0)"/>
<path d="M69 91h2v1h-2v-1z" fill="rgb(0,0,0)"/>
<path d="M74 91h2v1h-2v-1z" fill="rgb(0,0,0)"/>
<path d="M78 91h4v1h-3v1h2v1h-2v1h3v1h-4v-5z" fill="rgb(0,0,0)"/>
<path d="M18 92h2v3h-2v-3z" fill="rgb(255,255,255)"/>
<path d="M20 92h1v3h-1v-3z" fill="rgb(0,0,0)"/>
<path d="M27 92h1v1h2v-1h1v4h-1v-2h-2v2h-1v-4z" fill="rgb(0,0,0)"/>
<path d="M28 92h2v1h-2v-1z" fill="rgb(255,255,255)"/>
<path d="M42 92h1v1h-1v-1z" fill="rgb(0,0,0)"/>
<path d="M45 92h1v1h-1v-1z" fill="rgb(0,0,0)"/>
<path d="M53 92h2v3h-2v-3z" fill="rgb(255,255,255)"/>
<path d="M55 92h1v3h-1v-3z" fill="rgb(0,0,0)"/>
<path d="M57 92h1v1h2v-1h1v4h-1v-2h-2v2h-1v-4z" fill="rgb(0,0,0)"/>
<path d="M58 92h2v1h-2v-1z" fill="rgb(255,255,255)"/>
<path d="M68 92h1v1h2v-1h1v4h-1v-2h-2v2h-1v-4z" fill="rgb(0,0,0)"/>
<path d="M69 92h2v1h-2v-1z" fill="rgb(255,255,255)"/>
<path d="M73 92h1v3h-1v-3z" fill="rgb(0,0,0)"/>
<path d="M44 93h1v1h-1v-1z" fill="rgb(0,0,0)"/>
<path d="M64 93h1v1h-1v-1z" fill="rgb(0,0,0)"/>
<path d="M75 93h2v2h-1v-1h-1v-1z" fill="rgb(0,0,0)"/>
<path d="M42 94h1v1h-1v-1z" fill="rgb(0,0,0)"/>
<path d="M45 94h1v1h-1v-1z" fill="rgb(0,0,0)"/>
<path d="M43 95h2v1h-2v-1z" fill="rgb(0,0,0)"/>
<path d="M74 95h2v1h-2v-1z" fill="rgb(0,0,0)"/>
<path d="M1 110h18v17h-18v-17z" fill="rgb(244,67,54)"/>
<path d="M75 110h20v17h-20v-17z" fill="rgb(33,150,243)"/>
<path d="M19 122h56v3h-56v-3z" fill="rgb(121,85,72)"/>
</svg>