<?xml version="1.0" encoding="utf-8"?>
<!-- generated at drububu.com  -->
<!DOCTYPE svg PUBLIC "-//W3C//DTD SVG 1.1//EN" "http://www.w3.org/Graphics/SVG/1.1/DTD/svg11.dtd">
<svg version="1.1" preserveAspectRatio="xMinYMin meet" xmlns="http://www.w3.org/2000/svg" xmlns:xlink="http://www.w3.org/1999/xlink" x="0px" y="0px" width="96px" height="128px" viewBox="0 0 96 128">
<path d="M0 0h96v128h-96v-128z" fill="rgb(255,255,255)"/>
<path d="M4 2h23v11h-23v-11z" fill="rgb(244,67,54)"/>
<path d="M34 2h27v11h-27v-11z" fill="rgb(76,175,80)"/>
<path d="M69 2h24v11h-24v-11z" fill="rgb(33,150,243)"/>
<path d="M2 5h2v8h23v-8h7v8h27v-8h8v8h24v-8h1v105h-4v-33h2v-13h-88v13h2v33h-4
	v-105z" fill="rgb(121,85,72)"/>
<path d="M12 5h4v1h-3v1h2v1h-3v-3z" fill="rgb(0,0,0)"/>
<path d="M46 5h2v1h-2v-1z" fill="rgb(0,0,0)"/>
<path d="M79 5h4v1h-3v1h2v1h-3v-3z" fill="rgb(0,0,0)"/>
<path d="M45 6h1v3h-1v-3z" fill="rgb(0,0,0)"/>
<path d="M46 6h2v3h-2v-3z" fill="rgb(76,175,80)"/>
<path d="M48 6h1v3h-1v-3z" fill="rgb(0,0,0)"/>
<path d="M15 8h1v1h-1v-1z" fill="rgb(0,0,0)"/>
<path d="M82 8h1v1h-1v-1z" fill="rgb(0,0,0)"/>
<path d="M12 9h3v1h-3v-1z" fill="rgb(0,0,0)"/>
<path d="M46 9h2v1h-2v-1z" fill="rgb(0,0,0)"/>
<path d="M79 9h3v1h-3v-1z" fill="rgb(0,0,0)"/>
<path d="M8 17h79v44h-79v-44z" fill="rgb(0,0,0)"/>
<path d="M9 18h77v42h-77v-42z" fill="rgb(255,255,255)"/>
<path d="M38 23h2v2h-2v-2z" fill="rgb(0,0,0)"/>
<path d="M46 23h2v2h-2v-2z" fill="rgb(0,0,0)"/>
<path d="M50 23h2v2h-2v-2z" fill="rgb(0,0,0)"/>
<path d="M36 25h2v2h-2v-2z" fill="rgb(0,0,0)"/>
<path d="M38 25h2v2h2v2h-2v4h-2v-2h-4v-2h2v-2h2v-2z" fill="rgb(255,223,0)"/>
<path d="M40 25h2v2h-2v-2z" fill="rgb(0,0,0)"/>
<path d="M44 25h2v6h-2v-2h-2v-2h2v-2z" fill="rgb(0,0,0)"/>
<path d="M46 25h2v4h2v2h2v4h-2v-2h-2v-2h-2v-6z" fill="rgb(255,223,0)"/>
<path d="M48 25h2v4h-2v-4z" fill="rgb(0,0,0)"/>
<path d="M50 25h2v2h2v4h-2v-2h-2v-4z" fill="rgb(255,223,0)"/>
<path d="M52 25h2v2h-2v-2z" fill="rgb(0,0,0)"/>
<path d="M56 25h6v6h-2v-4h-4v-2z" fill="rgb(0,0,0)"/>
<path d="M34 27h2v2h-2v-2z" fill="rgb(0,0,0)"/>
<path d="M54 27h2v4h-2v-4z" fill="rgb(0,0,0)"/>
<path d="M56 27h4v4h-2v2h-2v2h-2v-4h2v-4z" fill="rgb(255,223,0)"/>
<path d="M32 29h2v2h-2v-2z" fill="rgb(0,0,0)"/>
<path d="M40 29h2v4h-2v-4z" fill="rgb(0,0,0)"/>
<path d="M42 29h2v2h2v2h2v2h-4v-2h-2v-4z" fill="rgb(255,223,0)"/>
<path d="M50 29h2v2h-2v-2z" fill="rgb(0,0,0)"/>
<path d="M34 31h4v2h2v2h-2v14h2v2h16v-2h2v-14h-2v-2h2v-2h2v20h-2v2h-20v-2h-2
	v-18h-2v-2z" fill="rgb(0,0,0)"/>
<path d="M46 31h2v2h-2v-2z" fill="rgb(0,0,0)"/>
<path d="M52 31h2v4h2v2h-16v-2h2v-2h2v2h4v-2h2v2h2v-4z" fill="rgb(0,0,0)"/>
<path d="M40 33h2v2h-2v-2z" fill="rgb(255,223,0)"/>
<path d="M38 35h2v2h16v-2h2v14h-2v2h-16v-2h-2v-14z" fill="rgb(255,0,0)"/>
<path d="M40 41h2v2h2v2h-4v-4z" fill="rgb(0,0,0)"/>
<path d="M42 41h2v2h-2v-2z" fill="rgb(255,255,255)"/>
<path d="M52 41h2v2h-2v-2z" fill="rgb(255,255,255)"/>
<path d="M54 41h2v4h-4v-2h2v-2z" fill="rgb(0,0,0)"/>
<path d="M46 45h4v2h-4v-2z" fill="rgb(0,0,0)"/>
<path d="M4 64h88v13h-88v-13z" fill="rgb(0,0,0)"/>
<path d="M5 65h86v11h-86v-11z" fill="rgb(255,255,255)"/>
<path d="M18 68h4v1h-3v1h2v1h-2v2h-1v-5z" fill="rgb(0,0,0)"/>
<path d="M23 68h3v1h-2v1h2v2h-1v-1h-1v2h-1v-5z" fill="rgb(0,0,0)"/>
<path d="M28 68h3v1h-1v3h1v1h-3v-1h1v-3h-1v-1z" fill="rgb(0,0,0)"/>
<path d="M32 68h4v1h-3v1h2v1h-2v1h3v1h-4v-5z" fill="rgb(0,0,0)"/>
<path d="M37 68h3v1h-2v3h2v1h-3v-5z" fill="rgb(0,0,0)"/>
<path d="M47 68h3v1h-2v1h2v1h-2v2h-1v-5z" fill="rgb(0,0,0)"/>
<path d="M53 68h2v1h-2v-1z" fill="rgb(0,0,0)"/>
<path d="M57 68h5v1h-2v4h-1v-4h-2v-1z" fill="rgb(0,0,0)"/>
<path d="M64 68h2v1h-2v-1z" fill="rgb(0,0,0)"/>
<path d="M68 68h5v1h-2v4h-1v-4h-2v-1z" fill="rgb(0,0,0)"/>
<path d="M75 68h2v1h-2v-1z" fill="rgb(0,0,0)"/>
<path d="M24 69h2v1h-2v-1z" fill="rgb(255,255,255)"/>
<path d="M26 69h1v1h-1v-1z" fill="rgb(0,0,0)"/>
<path d="M38 69h2v3h-2v-3z" fill="rgb(255,255,255)"/>
<path d="M40 69h1v3h-1v-3z" fill="rgb(0,0,0)"/>
<path d="M48 69h2v1h-2v-1z" fill="rgb(255,255,255)"/>
<path d="M50 69h1v1h-1v-1z" fill="rgb(0,0,0)"/>
<path d="M52 69h1v3h-1v-3z" fill="rgb(0,0,0)"/>
<path d="M53 69h2v3h-2v-3z" fill="rgb(255,255,255)"/>
<path d="M55 69h1v3h-1v-3z" fill="rgb(0,0,0)"/>
<path d="M63 69h1v1h2v-1h1v4h-1v-2h-2v2h-1v-4z" fill="rgb(0,0,0)"/>
<path d="M64 69h2v1h-2v-1z" fill="rgb(255,255,255)"/>
<path d="M74 69h1v3h-1v-3z" fill="rgb(0,0,0)"/>
<path d="M75 69h2v3h-2v-3z" fill="rgb(255,255,255)"/>
<path d="M77 69h1v3h-1v-3z" fill="rgb(0,0,0)"/>
<path d="M26 72h1v1h-1v-1z" fill="rgb(0,0,0)"/>
<path d="M53 72h2v1h-2v-1z" fill="rgb(0,0,0)"/>
<path d="M75 72h2v1h-2v-1z" fill="rgb(0,0,0)"/>
<path d="M6 77h84v33h-15v12h-56v-12h-13v-33z" fill="rgb(255,255,255)"/>
<path d="M20 84h3v1h-2v1h2v1h-2v1h2v1h-3v-5z" fill="rgb(0,0,0)"/>
<path d="M26 84h2v1h-2v-1z" fill="rgb(0,0,0)"/>
<path d="M30 84h5v1h-2v4h-1v-4h-2v-1z" fill="rgb(0,0,0)"/>
<path d="M36 84h5v1h-2v4h-1v-4h-2v-1z" fill="rgb(0,0,0)"/>
<path d="M42 84h1v4h3v1h-4v-5z" fill="rgb(0,0,0)"/>
<path d="M47 84h4v1h-3v1h2v1h-2v1h3v1h-4v-5z" fill="rgb(0,0,0)"/>
<path d="M53 84h2v1h-2v-1z" fill="rgb(0,0,0)"/>
<path d="M57 84h3v1h-2v1h2v2h-1v-1h-1v2h-1v-5z" fill="rgb(0,0,0)"/>
<path d="M62 84h1v2h-1v-2z" fill="rgb(0,0,0)"/>
<path d="M66 84h1v2h-1v-2z" fill="rgb(0,0,0)"/>
<path d="M21 85h2v1h-2v-1z" fill="rgb(255,255,255)"/>
<path d="M23 85h1v1h-1v-1z" fill="rgb(0,0,0)"/>
<path d="M25 85h1v1h2v-1h1v4h-1v-2h-2v2h-1v-4z" fill="rgb(0,0,0)"/>
<path d="M26 85h2v1h-2v-1z" fill="rgb(255,255,255)"/>
<path d="M52 85h1v3h-1v-3z" fill="rgb(0,0,0)"/>
<path d="M55 85h1v1h-1v-1z" fill="rgb(0,0,0)"/>
<path d="M58 85h2v1h-2v-1z" fill="rgb(255,255,255)"/>
<path d="M60 85h1v1h-1v-1z" fill="rgb(0,0,0)"/>
<path d="M68 85h1v1h-1v-1z" fill="rgb(0,0,0)"/>
<path d="M63 86h3v1h-1v2h-1v-2h-1v-1z" fill="rgb(0,0,0)"/>
<path d="M21 87h2v1h-2v-1z" fill="rgb(255,255,255)"/>
<path d="M23 87h1v1h-1v-1z" fill="rgb(0,0,0)"/>
<path d="M55 87h1v1h-1v-1z" fill="rgb(0,0,0)"/>
<path d="M53 88h2v1h-2v-1z" fill="rgb(0,0,0)"/>
<path d="M60 88h1v1h-1v-1z" fill="rgb(0,0,0)"/>
<path d="M68 88h1v1h-1v-1z" fill="rgb(0,0,0)"/>
<path d="M10 90h3v1h-2v1h2v2h-1v-1h-1v2h-1v-5z" fill="rgb(0,0,0)"/>
<path d="M15 90h4v1h-3v1h2v1h-2v1h3v1h-4v-5z" fill="rgb(0,0,0)"/>
<path d="M21 90h2v1h-2v-1z" fill="rgb(0,0,0)"/>
<path d="M25 90h3v1h-2v1h2v2h-1v-1h-1v2h-1v-5z" fill="rgb(0,0,0)"/>
<path d="M30 90h1v4h-1v-4z" fill="rgb(0,0,0)"/>
<path d="M33 90h1v4h-1v-4z" fill="rgb(0,0,0)"/>
<path d="M35 90h3v1h-1v3h1v1h-3v-1h1v-3h-1v-1z" fill="rgb(0,0,0)"/>
<path d="M39 90h5v1h-2v4h-1v-4h-2v-1z" fill="rgb(0,0,0)"/>
<path d="M51 90h2v1h-2v-1z" fill="rgb(0,0,0)"/>
<path d="M60 90h1v1h1v1h-1v3h-1v-5z" fill="rgb(0,0,0)"/>
<path d="M64 90h1v5h-1v-3h-1v-1h1v-1z" fill="rgb(0,0,0)"/>
<path d="M66 90h3v1h-1v3h1v1h-3v-1h1v-3h-1v-1z" fill="rgb(0,0,0)"/>
<path d="M70 90h1v1h1v1h-1v3h-1v-5z" fill="rgb(0,0,0)"/>
<path d="M73 90h1v5h-1v-2h-1v-1h1v-2z" fill="rgb(0,0,0)"/>
<path d="M75 90h3v1h-1v3h1v1h-3v-1h1v-3h-1v-1z" fill="rgb(0,0,0)"/>
<path d="M80 90h2v1h-2v-1z" fill="rgb(0,0,0)"/>
<path d="M84 90h1v1h1v1h-1v3h-1v-5z" fill="rgb(0,0,0)"/>
<path d="M87 90h1v5h-1v-2h-1v-1h1v-2z" fill="rgb(0,0,0)"/>
<path d="M11 91h2v1h-2v-1z" fill="rgb(255,255,255)"/>
<path d="M13 91h1v1h-1v-1z" fill="rgb(0,0,0)"/>
<path d="M20 91h1v3h-1v-3z" fill="rgb(0,0,0)"/>
<path d="M23 91h1v1h-1v-1z" fill="rgb(0,0,0)"/>
<path d="M26 91h2v1h-2v-1z" fill="rgb(255,255,255)"/>
<path d="M28 91h1v1h-1v-1z" fill="rgb(0,0,0)"/>
<path d="M50 91h1v1h2v-1h1v4h-1v-2h-2v2h-1v-4z" fill="rgb(0,0,0)"/>
<path d="M51 91h2v1h-2v-1z" fill="rgb(255,255,255)"/>
<path d="M79 91h1v3h-1v-3z" fill="rgb(0,0,0)"/>
<path d="M80 91h2v3h-2v-3z" fill="rgb(255,255,255)"/>
<path d="M82 91h1v3h-1v-3z" fill="rgb(0,0,0)"/>
<path d="M62 92h1v1h-1v-1z" fill="rgb(0,0,0)"/>
<path d="M23 93h1v1h-1v-1z" fill="rgb(0,0,0)"/>
<path d="M13 94h1v1h-1v-1z" fill="rgb(0,0,0)"/>
<path d="M21 94h2v1h-2v-1z" fill="rgb(0,0,0)"/>
<path d="M28 94h1v1h-1v-1z" fill="rgb(0,0,0)"/>
<path d="M31 94h2v1h-2v-1z" fill="rgb(0,0,0)"/>
<path d="M80 94h2v1h-2v-1z" fill="rgb(0,0,0)"/>
<path d="M15 96h4v1h-3v1h2v1h-2v2h-1v-5z" fill="rgb(0,0,0)"/>
<path d="M20 96h3v1h-2v1h2v2h-1v-1h-1v2h-1v-5z" fill="rgb(0,0,0)"/>
<path d="M26 96h2v1h-2v-1z" fill="rgb(0,0,0)"/>
<path d="M30 96h1v1h1v1h-1v3h-1v-5z" fill="rgb(0,0,0)"/>
<path d="M34 96h1v5h-1v-3h-1v-1h1v-1z" fill="rgb(0,0,0)"/>
<path d="M41 96h1v2h-1v-2z" fill="rgb(0,0,0)"/>
<path d="M45 96h1v2h-1v-2z" fill="rgb(0,0,0)"/>
<path d="M48 96h2v1h-2v-1z" fill="rgb(0,0,0)"/>
<path d="M52 96h1v4h-1v-4z" fill="rgb(0,0,0)"/>
<path d="M55 96h1v4h-1v-4z" fill="rgb(0,0,0)"/>
<path d="M57 96h3v1h-2v1h2v2h-1v-1h-1v2h-1v-5z" fill="rgb(0,0,0)"/>
<path d="M67 96h3v1h-2v3h2v1h-3v-5z" fill="rgb(0,0,0)"/>
<path d="M72 96h4v1h-3v1h2v1h-2v1h3v1h-4v-5z" fill="rgb(0,0,0)"/>
<path d="M78 96h2v1h-2v-1z" fill="rgb(0,0,0)"/>
<path d="M82 96h1v2h1v1h-1v2h-1v-5z" fill="rgb(0,0,0)"/>
<path d="M85 96h1v1h-1v-1z" fill="rgb(0,0,0)"/>
<path d="M21 97h2v1h-2v-1z" fill="rgb(255,255,255)"/>
<path d="M23 97h1v1h-1v-1z" fill="rgb(0,0,0)"/>
<path d="M25 97h1v3h-1v-3z" fill="rgb(0,0,0)"/>
<path d="M26 97h2v3h-2v-3z" fill="rgb(255,255,255)"/>
<path d="M28 97h1v3h-1v-3z" fill="rgb(0,0,0)"/>
<path d="M47 97h1v3h-1v-3z" fill="rgb(0,0,0)"/>
<path d="M48 97h2v3h-2v-3z" fill="rgb(255,255,255)"/>
<path d="M50 97h1v3h-1v-3z" fill="rgb(0,0,0)"/>
<path d="M58 97h2v1h-2v-1z" fill="rgb(255,255,255)"/>
<path d="M60 97h1v1h-1v-1z" fill="rgb(0,0,0)"/>
<path d="M68 97h2v3h-2v-3z" fill="rgb(255,255,255)"/>
<path d="M70 97h1v3h-1v-3z" fill="rgb(0,0,0)"/>
<path d="M77 97h1v3h-1v-3z" fill="rgb(0,0,0)"/>
<path d="M80 97h1v1h-1v-1z" fill="rgb(0,0,0)"/>
<path d="M84 97h1v1h-1v-1z" fill="rgb(0,0,0)"/>
<path d="M32 98h1v1h-1v-1z" fill="rgb(0,0,0)"/>
<path d="M42 98h3v1h-1v2h-1v-2h-1v-1z" fill="rgb(0,0,0)"/>
<path d="M80 99h1v1h-1v-1z" fill="rgb(0,0,0)"/>
<path d="M84 99h1v1h-1v-1z" fill="rgb(0,0,0)"/>
<path d="M23 100h1v1h-1v-1z" fill="rgb(0,0,0)"/>
<path d="M26 100h2v1h-2v-1z" fill="rgb(0,0,0)"/>
<path d="M48 100h2v1h-2v-1z" fill="rgb(0,0,0)"/>
<path d="M53 100h2v1h-2v-1z" fill="rgb(0,0,0)"/>
<path d="M60 100h1v1h-1v-1z" fill="rgb(0,0,0)"/>
<path d="M78 100h2v1h-2v-1z" fill="rgb(0,0,0)"/>
<path d="M85 100h1v1h-1v-1z" fill="rgb(0,0,0)"/>
<path d="M1 110h18v17h-18v-17z" fill="rgb(244,67,54)"/>
<path d="M75 110h20v17h-20v-17z" fill="rgb(33,150,243)"/>
<path d="M9 115h2v1h-2v-1z" fill="rgb(0,0,0)"/>
<path d="M82 115h2v1h-2v-1z" fill="rgb(0,0,0)"/>
<path d="M8 116h1v1h-1v-1z" fill="rgb(0,0,0)"/>
<path d="M11 116h1v1h-1v-1z" fill="rgb(0,0,0)"/>
<path d="M81 116h1v1h-1v-1z" fill="rgb(0,0,0)"/>
<path d="M84 116h1v1h-1v-1z" fill="rgb(0,0,0)"/>
<path d="M10 117h1v1h-1v-1z" fill="rgb(0,0,0)"/>
<path d="M83 117h1v1h-1v-1z" fill="rgb(0,0,0)"/>
<path d="M8 118h1v1h-1v-1z" fill="rgb(0,0,0)"/>
<path d="M11 118h1v1h-1v-1z" fill="rgb(0,0,0)"/>
<path d="M81 118h1v1h-1v-1z" fill="rgb(0,0,0)"/>
<path d="M84 118h1v1h-1v-1z" fill="rgb(0,0,0)"/>
<path d="M9 119h2v1h-2v-1z" fill="rgb(0,0,0)"/>
<path d="M82 119h2v1h-2v-1z" fill="rgb(0,0,0)"/>
<path d="M19 122h56v3h-56v-3z" fill="rgb(121,85,72)"/>
</svg>