<?xml version="1.0" encoding="utf-8"?>
<!-- generated at drububu.com  -->
<!DOCTYPE svg PUBLIC "-//W3C//DTD SVG 1.1//EN" "http://www.w3.org/Graphics/SVG/1.1/DTD/svg11.dtd">
<svg version="1.1" preserveAspectRatio="xMinYMin meet" xmlns="http://www.w3.org/2000/svg" xmlns:xlink="http://www.w3.org/1999/xlink" x="0px" y="0px" width="96px" height="128px" viewBox="0 0 96 128">
<path d="M0 0h96v128h-96v-128z" fill="rgb(255,255,255)"/>
<path d="M4 2h23v11h-23v-11z" fill="rgb(244,67,54)"/>
<path d="M34 2h27v11h-27v-11z" fill="rgb(76,175,80)"/>
<path d="M69 2h24v11h-24v-11z" fill="rgb(33,150,243)"/>
<path d="M2 5h2v8h23v-8h7v8h27v-8h8v8h24v-8h1v105h-4v-33h2v-13h-88v13h2v33h-4
	v-105z" fill="rgb(121,85,72)"/>
<path d="M15 5h2v1h-2v-1z" fill="rgb(0,0,0)"/>
<path d="M48 5h2v1h-2v-1z" fill="rgb(0,0,0)"/>
<path d="M81 5h2v1h-2v-1z" fill="rgb(0,0,0)"/>
<path d="M14 6h1v3h-1v-3z" fill="rgb(0,0,0)"/>
<path d="M15 6h2v3h-2v-3z" fill="rgb(244,67,54)"/>
<path d="M17 6h1v3h-1v-3z" fill="rgb(0,0,0)"/>
<path d="M47 6h1v3h-1v-3z" fill="rgb(0,0,0)"/>
<path d="M48 6h2v3h-2v-3z" fill="rgb(76,175,80)"/>
<path d="M50 6h1v3h-1v-3z" fill="rgb(0,0,0)"/>
<path d="M80 6h1v1h-1v-1z" fill="rgb(0,0,0)"/>
<path d="M83 6h1v1h-1v-1z" fill="rgb(0,0,0)"/>
<path d="M82 7h1v1h-1v-1z" fill="rgb(0,0,0)"/>
<path d="M80 8h1v1h-1v-1z" fill="rgb(0,0,0)"/>
<path d="M83 8h1v1h-1v-1z" fill="rgb(0,0,0)"/>
<path d="M15 9h2v1h-2v-1z" fill="rgb(0,0,0)"/>
<path d="M48 9h2v1h-2v-1z" fill="rgb(0,0,0)"/>
<path d="M81 9h2v1h-2v-1z" fill="rgb(0,0,0)"/>
<path d="M8 17h79v44h-79v-44z" fill="rgb(0,0,0)"/>
<path d="M9 18h77v42h-77v-42z" fill="rgb(255,255,255)"/>
<path d="M37 25h4v2h-1v1h2v-1h2v-1h4v3h-1v2h-1v1h-1v4h1v1h2v1h2v-1h1v-1h5v-1h-5
	v1h-2v-1h1v-1h6v-3h1v-1h1v-1h5v1h1v1h1v1h1v6h-1v1h-1v1h-3v-1h2v-1h1v-1h1v-4h-1
	v-1h-1v-1h-1v-1h-3v1h-1v1h-1v1h3v1h-3v1h1v2h3v-1h1v-2h-1v-1h-1v-1h2v1h1v4h-1v1
	h-4v1h-1v1h-1v-1h-2v1h2v1h-3v-1h-2v-1h-5v-1h-1v-1h-1v1h-1v1h-1v2h-1v-2h-1v7h-1
	v1h-1v1h-1v1h2v-1h1v-1h1v-2h1v-2h1v-2h1v7h-1v1h2v-3h1v-5h1v3h8v-2h1v6h-1v1h2
	v-1h1v-2h1v-6h2v1h-1v6h-1v3h-9v-3h2v-2h-5v2h-1v3h-5v-1h-1v1h-4v-3h1v-1h1v-1h1v-5
	h-1v-1h-3v-1h7v-1h1v-1h1v-5h-1v-1h-1v-1h-6v1h-1v1h-1v4h-1v1h-1v-2h1v-4h1v-3h1
	v-1h2v-1z" fill="rgb(0,0,0)"/>
<path d="M38 26h1v1h-1v-1z" fill="rgb(255,255,255)"/>
<path d="M36 27h2v1h-2v-1z" fill="rgb(255,255,255)"/>
<path d="M45 27h2v1h-1v2h-2v-1h-1v-1h2v-1z" fill="rgb(255,255,255)"/>
<path d="M36 29h6v1h1v1h1v5h-1v1h-1v1h-7v-1h-1v-1h-1v-1h1v-4h1v-1h1v-1z" fill="rgb(255,255,255)"/>
<path d="M40 30h1v1h-1v-1z" fill="rgb(0,0,0)"/>
<path d="M45 30h1v1h-1v-1z" fill="rgb(255,0,140)"/>
<path d="M59 30h3v1h1v1h1v1h1v4h-1v1h-1v1h-2v1h-3v-2h4v-1h1v-4h-1v-1h-2v1h-3v-1
	h1v-1h1v-1z" fill="rgb(255,0,140)"/>
<path d="M37 31h3v1h-3v-1z" fill="rgb(0,0,0)"/>
<path d="M36 32h1v1h-1v-1z" fill="rgb(0,0,0)"/>
<path d="M40 32h1v1h-1v-1z" fill="rgb(0,0,0)"/>
<path d="M35 33h1v1h-1v-1z" fill="rgb(0,0,0)"/>
<path d="M60 33h1v1h1v2h-1v1h-3v-2h-1v-1h3v-1z" fill="rgb(255,255,255)"/>
<path d="M51 35h5v1h-5v-1z" fill="rgb(255,255,255)"/>
<path d="M33 36h1v1h-1v-1z" fill="rgb(0,0,0)"/>
<path d="M35 36h1v1h-1v-1z" fill="rgb(0,0,0)"/>
<path d="M48 36h1v1h-1v-1z" fill="rgb(0,0,0)"/>
<path d="M49 36h2v1h-1v1h-2v-1h1v-1z" fill="rgb(255,255,255)"/>
<path d="M34 37h1v1h-1v-1z" fill="rgb(0,0,0)"/>
<path d="M44 37h1v1h1v1h5v1h2v1h3v-1h1v-1h1v1h1v6h-1v2h-2v-6h-1v2h-8v-3h-1v5h-1
	v2h-1v-7h-1v2h-1v-1h-1v1h1v2h-1v2h-1v1h-2v-1h1v-1h1v-7h1v2h1v-2h1v-1h1v-1z" fill="rgb(255,255,255)"/>
<path d="M52 37h5v1h-5v-1z" fill="rgb(255,255,255)"/>
<path d="M54 39h2v1h-2v-1z" fill="rgb(255,255,255)"/>
<path d="M41 42h1v1h-1v-1z" fill="rgb(0,0,0)"/>
<path d="M53 45h2v2h-1v1h-1v-3z" fill="rgb(255,255,255)"/>
<path d="M42 46h1v1h-1v-1z" fill="rgb(255,255,255)"/>
<path d="M37 48h2v1h-2v-1z" fill="rgb(255,0,140)"/>
<path d="M43 48h2v1h-2v-1z" fill="rgb(255,0,140)"/>
<path d="M51 48h2v1h-2v-1z" fill="rgb(255,0,140)"/>
<path d="M55 48h2v1h-2v-1z" fill="rgb(255,0,140)"/>
<path d="M4 64h88v13h-88v-13z" fill="rgb(0,0,0)"/>
<path d="M5 65h86v11h-86v-11z" fill="rgb(255,255,255)"/>
<path d="M24 68h2v1h-2v-1z" fill="rgb(0,0,0)"/>
<path d="M28 68h1v4h3v1h-4v-5z" fill="rgb(0,0,0)"/>
<path d="M33 68h3v1h-1v3h1v1h-3v-1h1v-3h-1v-1z" fill="rgb(0,0,0)"/>
<path d="M37 68h5v1h-2v4h-1v-4h-2v-1z" fill="rgb(0,0,0)"/>
<path d="M43 68h4v1h-1v1h-1v-1h-2v-1z" fill="rgb(0,0,0)"/>
<path d="M48 68h1v2h-1v-2z" fill="rgb(0,0,0)"/>
<path d="M52 68h1v2h-1v-2z" fill="rgb(0,0,0)"/>
<path d="M60 68h2v1h-2v-1z" fill="rgb(0,0,0)"/>
<path d="M65 68h2v1h-2v-1z" fill="rgb(0,0,0)"/>
<path d="M69 68h5v1h-2v4h-1v-4h-2v-1z" fill="rgb(0,0,0)"/>
<path d="M23 69h1v3h-1v-3z" fill="rgb(0,0,0)"/>
<path d="M59 69h1v3h-1v-3z" fill="rgb(0,0,0)"/>
<path d="M62 69h1v1h-1v-1z" fill="rgb(0,0,0)"/>
<path d="M64 69h1v1h2v-1h1v4h-1v-2h-2v2h-1v-4z" fill="rgb(0,0,0)"/>
<path d="M65 69h2v1h-2v-1z" fill="rgb(255,255,255)"/>
<path d="M25 70h2v2h-1v-1h-1v-1z" fill="rgb(0,0,0)"/>
<path d="M44 70h1v1h-1v-1z" fill="rgb(0,0,0)"/>
<path d="M49 70h3v1h-1v2h-1v-2h-1v-1z" fill="rgb(0,0,0)"/>
<path d="M43 71h1v1h3v1h-4v-2z" fill="rgb(0,0,0)"/>
<path d="M62 71h1v1h-1v-1z" fill="rgb(0,0,0)"/>
<path d="M24 72h2v1h-2v-1z" fill="rgb(0,0,0)"/>
<path d="M60 72h2v1h-2v-1z" fill="rgb(0,0,0)"/>
<path d="M6 77h84v33h-15v12h-56v-12h-13v-33z" fill="rgb(255,255,255)"/>
<path d="M26 86h3v1h-2v1h2v1h-2v1h2v1h-3v-5z" fill="rgb(0,0,0)"/>
<path d="M32 86h2v1h-2v-1z" fill="rgb(0,0,0)"/>
<path d="M36 86h5v1h-2v4h-1v-4h-2v-1z" fill="rgb(0,0,0)"/>
<path d="M42 86h5v1h-2v4h-1v-4h-2v-1z" fill="rgb(0,0,0)"/>
<path d="M48 86h1v4h3v1h-4v-5z" fill="rgb(0,0,0)"/>
<path d="M53 86h4v1h-3v1h2v1h-2v1h3v1h-4v-5z" fill="rgb(0,0,0)"/>
<path d="M59 86h2v1h-2v-1z" fill="rgb(0,0,0)"/>
<path d="M63 86h3v1h-2v1h2v2h-1v-1h-1v2h-1v-5z" fill="rgb(0,0,0)"/>
<path d="M68 86h1v2h-1v-2z" fill="rgb(0,0,0)"/>
<path d="M72 86h1v2h-1v-2z" fill="rgb(0,0,0)"/>
<path d="M27 87h2v1h-2v-1z" fill="rgb(255,255,255)"/>
<path d="M29 87h1v1h-1v-1z" fill="rgb(0,0,0)"/>
<path d="M31 87h1v1h2v-1h1v4h-1v-2h-2v2h-1v-4z" fill="rgb(0,0,0)"/>
<path d="M32 87h2v1h-2v-1z" fill="rgb(255,255,255)"/>
<path d="M58 87h1v3h-1v-3z" fill="rgb(0,0,0)"/>
<path d="M61 87h1v1h-1v-1z" fill="rgb(0,0,0)"/>
<path d="M64 87h2v1h-2v-1z" fill="rgb(255,255,255)"/>
<path d="M66 87h1v1h-1v-1z" fill="rgb(0,0,0)"/>
<path d="M74 87h1v1h-1v-1z" fill="rgb(0,0,0)"/>
<path d="M69 88h3v1h-1v2h-1v-2h-1v-1z" fill="rgb(0,0,0)"/>
<path d="M27 89h2v1h-2v-1z" fill="rgb(255,255,255)"/>
<path d="M29 89h1v1h-1v-1z" fill="rgb(0,0,0)"/>
<path d="M61 89h1v1h-1v-1z" fill="rgb(0,0,0)"/>
<path d="M59 90h2v1h-2v-1z" fill="rgb(0,0,0)"/>
<path d="M66 90h1v1h-1v-1z" fill="rgb(0,0,0)"/>
<path d="M74 90h1v1h-1v-1z" fill="rgb(0,0,0)"/>
<path d="M26 92h1v2h2v-2h1v5h-1v-2h-2v2h-1v-5z" fill="rgb(0,0,0)"/>
<path d="M31 92h4v1h-3v1h2v1h-2v1h3v1h-4v-5z" fill="rgb(0,0,0)"/>
<path d="M37 92h2v1h-2v-1z" fill="rgb(0,0,0)"/>
<path d="M41 92h1v4h3v1h-4v-5z" fill="rgb(0,0,0)"/>
<path d="M51 92h1v2h-1v-2z" fill="rgb(0,0,0)"/>
<path d="M55 92h1v2h-1v-2z" fill="rgb(0,0,0)"/>
<path d="M58 92h2v1h-2v-1z" fill="rgb(0,0,0)"/>
<path d="M62 92h1v4h-1v-4z" fill="rgb(0,0,0)"/>
<path d="M65 92h1v4h-1v-4z" fill="rgb(0,0,0)"/>
<path d="M67 92h3v1h-2v1h2v2h-1v-1h-1v2h-1v-5z" fill="rgb(0,0,0)"/>
<path d="M36 93h1v1h2v-1h1v4h-1v-2h-2v2h-1v-4z" fill="rgb(0,0,0)"/>
<path d="M37 93h2v1h-2v-1z" fill="rgb(255,255,255)"/>
<path d="M57 93h1v3h-1v-3z" fill="rgb(0,0,0)"/>
<path d="M58 93h2v3h-2v-3z" fill="rgb(255,255,255)"/>
<path d="M60 93h1v3h-1v-3z" fill="rgb(0,0,0)"/>
<path d="M68 93h2v1h-2v-1z" fill="rgb(255,255,255)"/>
<path d="M70 93h1v1h-1v-1z" fill="rgb(0,0,0)"/>
<path d="M52 94h3v1h-1v2h-1v-2h-1v-1z" fill="rgb(0,0,0)"/>
<path d="M58 96h2v1h-2v-1z" fill="rgb(0,0,0)"/>
<path d="M63 96h2v1h-2v-1z" fill="rgb(0,0,0)"/>
<path d="M70 96h1v1h-1v-1z" fill="rgb(0,0,0)"/>
<path d="M26 98h1v2h2v-2h1v5h-1v-2h-2v2h-1v-5z" fill="rgb(0,0,0)"/>
<path d="M31 98h4v1h-3v1h2v1h-2v1h3v1h-4v-5z" fill="rgb(0,0,0)"/>
<path d="M36 98h3v1h-2v1h2v2h-1v-1h-1v2h-1v-5z" fill="rgb(0,0,0)"/>
<path d="M42 98h2v1h-2v-1z" fill="rgb(0,0,0)"/>
<path d="M51 98h4v1h-3v1h2v1h-2v2h-1v-5z" fill="rgb(0,0,0)"/>
<path d="M57 98h2v1h-2v-1z" fill="rgb(0,0,0)"/>
<path d="M61 98h3v1h-2v1h2v2h-1v-1h-1v2h-1v-5z" fill="rgb(0,0,0)"/>
<path d="M37 99h2v1h-2v-1z" fill="rgb(255,255,255)"/>
<path d="M39 99h1v1h-1v-1z" fill="rgb(0,0,0)"/>
<path d="M41 99h1v3h-1v-3z" fill="rgb(0,0,0)"/>
<path d="M42 99h2v3h-2v-3z" fill="rgb(255,255,255)"/>
<path d="M44 99h1v3h-1v-3z" fill="rgb(0,0,0)"/>
<path d="M56 99h1v3h-1v-3z" fill="rgb(0,0,0)"/>
<path d="M57 99h2v3h-2v-3z" fill="rgb(255,255,255)"/>
<path d="M59 99h1v3h-1v-3z" fill="rgb(0,0,0)"/>
<path d="M62 99h2v1h-2v-1z" fill="rgb(255,255,255)"/>
<path d="M64 99h1v1h-1v-1z" fill="rgb(0,0,0)"/>
<path d="M39 102h1v1h-1v-1z" fill="rgb(0,0,0)"/>
<path d="M42 102h2v1h-2v-1z" fill="rgb(0,0,0)"/>
<path d="M57 102h2v1h-2v-1z" fill="rgb(0,0,0)"/>
<path d="M64 102h1v1h-1v-1z" fill="rgb(0,0,0)"/>
<path d="M28 104h1v3h1v1h-1v1h-1v-1h-2v-2h1v-1h1v-1z" fill="rgb(0,0,0)"/>
<path d="M36 104h1v2h2v-2h1v5h-1v-2h-2v2h-1v-5z" fill="rgb(0,0,0)"/>
<path d="M41 104h4v1h-3v1h2v1h-2v1h3v1h-4v-5z" fill="rgb(0,0,0)"/>
<path d="M47 104h2v1h-2v-1z" fill="rgb(0,0,0)"/>
<path d="M51 104h1v4h3v1h-4v-5z" fill="rgb(0,0,0)"/>
<path d="M56 104h5v1h-2v4h-1v-4h-2v-1z" fill="rgb(0,0,0)"/>
<path d="M62 104h1v2h2v-2h1v5h-1v-2h-2v2h-1v-5z" fill="rgb(0,0,0)"/>
<path d="M46 105h1v1h2v-1h1v4h-1v-2h-2v2h-1v-4z" fill="rgb(0,0,0)"/>
<path d="M47 105h2v1h-2v-1z" fill="rgb(255,255,255)"/>
<path d="M27 106h1v1h-1v-1z" fill="rgb(255,255,255)"/>
<path d="M1 110h18v17h-18v-17z" fill="rgb(244,67,54)"/>
<path d="M75 110h20v17h-20v-17z" fill="rgb(33,150,243)"/>
<path d="M8 116h1v4h1v1h-3v-1h1v-2h-1v-1h1v-1z" fill="rgb(0,0,0)"/>
<path d="M84 116h1v3h1v1h-1v1h-1v-1h-2v-2h1v-1h1v-1z" fill="rgb(0,0,0)"/>
<path d="M83 118h1v1h-1v-1z" fill="rgb(33,150,243)"/>
<path d="M19 122h56v3h-56v-3z" fill="rgb(121,85,72)"/>
</svg>