<?xml version="1.0" encoding="utf-8"?>
<!-- generated at drububu.com  -->
<!DOCTYPE svg PUBLIC "-//W3C//DTD SVG 1.1//EN" "http://www.w3.org/Graphics/SVG/1.1/DTD/svg11.dtd">
<svg version="1.1" preserveAspectRatio="xMinYMin meet" xmlns="http://www.w3.org/2000/svg" xmlns:xlink="http://www.w3.org/1999/xlink" x="0px" y="0px" width="96px" height="128px" viewBox="0 0 96 128">
<path d="M0 0h96v128h-96v-128z" fill="rgb(255,255,255)"/>
<path d="M4 2h23v11h-23v-11z" fill="rgb(244,67,54)"/>
<path d="M34 2h27v11h-27v-11z" fill="rgb(76,175,80)"/>
<path d="M69 2h24v11h-24v-11z" fill="rgb(33,150,243)"/>
<path d="M2 5h2v8h23v-8h7v8h27v-8h8v8h24v-8h1v105h-4v-33h2v-13h-88v13h2v33h-4
	v-105z" fill="rgb(121,85,72)"/>
<path d="M46 5h1v3h1v1h-1v1h-1v-1h-2v-2h1v-1h1v-1z" fill="rgb(0,0,0)"/>
<path d="M81 5h2v1h-2v-1z" fill="rgb(0,0,0)"/>
<path d="M15 6h2v1h-2v-1z" fill="rgb(0,0,0)"/>
<path d="M80 6h1v1h-1v-1z" fill="rgb(0,0,0)"/>
<path d="M83 6h1v1h-1v-1z" fill="rgb(0,0,0)"/>
<path d="M14 7h1v3h-1v-3z" fill="rgb(0,0,0)"/>
<path d="M15 7h2v3h-2v-3z" fill="rgb(244,67,54)"/>
<path d="M17 7h1v3h-1v-3z" fill="rgb(0,0,0)"/>
<path d="M45 7h1v1h-1v-1z" fill="rgb(76,175,80)"/>
<path d="M82 7h1v1h-1v-1z" fill="rgb(0,0,0)"/>
<path d="M81 8h1v1h2v1h-4v-1h1v-1z" fill="rgb(0,0,0)"/>
<path d="M15 10h2v1h-2v-1z" fill="rgb(0,0,0)"/>
<path d="M8 17h79v44h-79v-44z" fill="rgb(0,0,0)"/>
<path d="M9 18h77v42h-77v-42z" fill="rgb(255,255,255)"/>
<path d="M26 24h4v2h-4v-2z" fill="rgb(0,0,0)"/>
<path d="M32 24h4v2h-4v-2z" fill="rgb(0,0,0)"/>
<path d="M61 24h4v2h-4v-2z" fill="rgb(0,0,0)"/>
<path d="M67 24h4v2h-4v-2z" fill="rgb(0,0,0)"/>
<path d="M24 26h2v4h-2v-4z" fill="rgb(0,0,0)"/>
<path d="M26 26h4v2h2v-2h4v4h-2v2h-2v2h-2v-2h-2v-2h-2v-4z" fill="rgb(231,76,60)"/>
<path d="M30 26h2v2h-2v-2z" fill="rgb(0,0,0)"/>
<path d="M36 26h2v4h-2v-4z" fill="rgb(0,0,0)"/>
<path d="M59 26h2v4h-2v-4z" fill="rgb(0,0,0)"/>
<path d="M61 26h4v2h2v-2h4v4h-2v2h-2v2h-2v-2h-2v-2h-2v-4z" fill="rgb(231,76,60)"/>
<path d="M65 26h2v2h-2v-2z" fill="rgb(0,0,0)"/>
<path d="M71 26h2v4h-2v-4z" fill="rgb(0,0,0)"/>
<path d="M26 30h2v2h-2v-2z" fill="rgb(0,0,0)"/>
<path d="M34 30h2v2h-2v-2z" fill="rgb(0,0,0)"/>
<path d="M61 30h2v2h-2v-2z" fill="rgb(0,0,0)"/>
<path d="M69 30h2v2h-2v-2z" fill="rgb(0,0,0)"/>
<path d="M28 32h2v2h-2v-2z" fill="rgb(0,0,0)"/>
<path d="M32 32h2v2h-2v-2z" fill="rgb(0,0,0)"/>
<path d="M44 32h9v1h-9v-1z" fill="rgb(0,0,0)"/>
<path d="M63 32h2v2h-2v-2z" fill="rgb(0,0,0)"/>
<path d="M67 32h2v2h-2v-2z" fill="rgb(0,0,0)"/>
<path d="M42 33h2v1h-2v-1z" fill="rgb(0,0,0)"/>
<path d="M44 33h9v1h2v2h1v4h-1v2h1v2h-2v1h-2v1h-7v-1h-2v-1h-2v-2h1v-2h-1v-4h1
	v-2h2v-1z" fill="rgb(255,255,255)"/>
<path d="M53 33h2v1h-2v-1z" fill="rgb(0,0,0)"/>
<path d="M30 34h2v2h-2v-2z" fill="rgb(0,0,0)"/>
<path d="M41 34h1v2h-1v-2z" fill="rgb(0,0,0)"/>
<path d="M55 34h1v2h-1v-2z" fill="rgb(0,0,0)"/>
<path d="M65 34h2v2h-2v-2z" fill="rgb(0,0,0)"/>
<path d="M40 36h1v4h-1v-4z" fill="rgb(0,0,0)"/>
<path d="M43 36h3v3h-3v-3z" fill="rgb(0,0,0)"/>
<path d="M51 36h3v3h-3v-3z" fill="rgb(0,0,0)"/>
<path d="M56 36h1v4h-1v-4z" fill="rgb(0,0,0)"/>
<path d="M48 38h1v1h1v1h-3v-1h1v-1z" fill="rgb(0,0,0)"/>
<path d="M41 40h1v2h-1v2h-1v-3h1v-1z" fill="rgb(0,0,0)"/>
<path d="M43 40h1v1h9v-1h1v2h-1v1h-1v-1h-1v1h1v1h-7v-1h-1v-1h-1v-2z" fill="rgb(0,0,0)"/>
<path d="M55 40h1v1h1v3h-1v-2h-1v-2z" fill="rgb(0,0,0)"/>
<path d="M45 42h1v1h-1v-1z" fill="rgb(255,255,255)"/>
<path d="M47 42h1v1h-1v-1z" fill="rgb(255,255,255)"/>
<path d="M49 42h1v1h-1v-1z" fill="rgb(255,255,255)"/>
<path d="M51 42h1v1h-1v-1z" fill="rgb(255,255,255)"/>
<path d="M41 44h2v1h-2v-1z" fill="rgb(0,0,0)"/>
<path d="M54 44h2v1h-2v-1z" fill="rgb(0,0,0)"/>
<path d="M43 45h2v1h-2v-1z" fill="rgb(0,0,0)"/>
<path d="M52 45h2v1h-2v-1z" fill="rgb(0,0,0)"/>
<path d="M45 46h7v1h-7v-1z" fill="rgb(0,0,0)"/>
<path d="M4 64h88v13h-88v-13z" fill="rgb(0,0,0)"/>
<path d="M5 65h86v11h-86v-11z" fill="rgb(255,255,255)"/>
<path d="M18 68h1v4h3v1h-4v-5z" fill="rgb(0,0,0)"/>
<path d="M24 68h2v1h-2v-1z" fill="rgb(0,0,0)"/>
<path d="M28 68h1v2h-1v-2z" fill="rgb(0,0,0)"/>
<path d="M32 68h1v2h-1v-2z" fill="rgb(0,0,0)"/>
<path d="M34 68h4v1h-3v1h2v1h-2v1h3v1h-4v-5z" fill="rgb(0,0,0)"/>
<path d="M39 68h1v4h3v1h-4v-5z" fill="rgb(0,0,0)"/>
<path d="M44 68h1v2h-1v-2z" fill="rgb(0,0,0)"/>
<path d="M48 68h1v2h-1v-2z" fill="rgb(0,0,0)"/>
<path d="M55 68h3v1h-2v1h2v1h-2v1h2v1h-3v-5z" fill="rgb(0,0,0)"/>
<path d="M61 68h2v1h-2v-1z" fill="rgb(0,0,0)"/>
<path d="M65 68h1v1h1v1h-1v3h-1v-5z" fill="rgb(0,0,0)"/>
<path d="M68 68h1v5h-1v-2h-1v-1h1v-2z" fill="rgb(0,0,0)"/>
<path d="M70 68h4v1h-3v1h2v1h-2v1h3v1h-4v-5z" fill="rgb(0,0,0)"/>
<path d="M76 68h3v1h-3v-1z" fill="rgb(0,0,0)"/>
<path d="M23 69h1v3h-1v-3z" fill="rgb(0,0,0)"/>
<path d="M24 69h2v3h-2v-3z" fill="rgb(255,255,255)"/>
<path d="M26 69h1v3h-1v-3z" fill="rgb(0,0,0)"/>
<path d="M56 69h2v1h-2v-1z" fill="rgb(255,255,255)"/>
<path d="M58 69h1v1h-1v-1z" fill="rgb(0,0,0)"/>
<path d="M60 69h1v3h-1v-3z" fill="rgb(0,0,0)"/>
<path d="M61 69h2v3h-2v-3z" fill="rgb(255,255,255)"/>
<path d="M63 69h1v3h-1v-3z" fill="rgb(0,0,0)"/>
<path d="M75 69h1v1h-1v-1z" fill="rgb(0,0,0)"/>
<path d="M29 70h1v2h-1v-2z" fill="rgb(0,0,0)"/>
<path d="M31 70h1v2h-1v-2z" fill="rgb(0,0,0)"/>
<path d="M45 70h3v1h-1v2h-1v-2h-1v-1z" fill="rgb(0,0,0)"/>
<path d="M76 70h2v1h-2v-1z" fill="rgb(0,0,0)"/>
<path d="M56 71h2v1h-2v-1z" fill="rgb(255,255,255)"/>
<path d="M58 71h1v1h-1v-1z" fill="rgb(0,0,0)"/>
<path d="M78 71h1v1h-1v-1z" fill="rgb(0,0,0)"/>
<path d="M24 72h2v1h-2v-1z" fill="rgb(0,0,0)"/>
<path d="M30 72h1v1h-1v-1z" fill="rgb(0,0,0)"/>
<path d="M61 72h2v1h-2v-1z" fill="rgb(0,0,0)"/>
<path d="M75 72h3v1h-3v-1z" fill="rgb(0,0,0)"/>
<path d="M6 77h84v33h-15v12h-56v-12h-13v-33z" fill="rgb(255,255,255)"/>
<path d="M24 84h3v1h-2v1h2v1h-2v1h2v1h-3v-5z" fill="rgb(0,0,0)"/>
<path d="M30 84h2v1h-2v-1z" fill="rgb(0,0,0)"/>
<path d="M34 84h5v1h-2v4h-1v-4h-2v-1z" fill="rgb(0,0,0)"/>
<path d="M40 84h5v1h-2v4h-1v-4h-2v-1z" fill="rgb(0,0,0)"/>
<path d="M46 84h1v4h3v1h-4v-5z" fill="rgb(0,0,0)"/>
<path d="M51 84h4v1h-3v1h2v1h-2v1h3v1h-4v-5z" fill="rgb(0,0,0)"/>
<path d="M57 84h2v1h-2v-1z" fill="rgb(0,0,0)"/>
<path d="M61 84h3v1h-2v1h2v2h-1v-1h-1v2h-1v-5z" fill="rgb(0,0,0)"/>
<path d="M66 84h1v2h-1v-2z" fill="rgb(0,0,0)"/>
<path d="M70 84h1v2h-1v-2z" fill="rgb(0,0,0)"/>
<path d="M25 85h2v1h-2v-1z" fill="rgb(255,255,255)"/>
<path d="M27 85h1v1h-1v-1z" fill="rgb(0,0,0)"/>
<path d="M29 85h1v1h2v-1h1v4h-1v-2h-2v2h-1v-4z" fill="rgb(0,0,0)"/>
<path d="M30 85h2v1h-2v-1z" fill="rgb(255,255,255)"/>
<path d="M56 85h1v3h-1v-3z" fill="rgb(0,0,0)"/>
<path d="M59 85h1v1h-1v-1z" fill="rgb(0,0,0)"/>
<path d="M62 85h2v1h-2v-1z" fill="rgb(255,255,255)"/>
<path d="M64 85h1v1h-1v-1z" fill="rgb(0,0,0)"/>
<path d="M72 85h1v1h-1v-1z" fill="rgb(0,0,0)"/>
<path d="M67 86h3v1h-1v2h-1v-2h-1v-1z" fill="rgb(0,0,0)"/>
<path d="M25 87h2v1h-2v-1z" fill="rgb(255,255,255)"/>
<path d="M27 87h1v1h-1v-1z" fill="rgb(0,0,0)"/>
<path d="M59 87h1v1h-1v-1z" fill="rgb(0,0,0)"/>
<path d="M57 88h2v1h-2v-1z" fill="rgb(0,0,0)"/>
<path d="M64 88h1v1h-1v-1z" fill="rgb(0,0,0)"/>
<path d="M72 88h1v1h-1v-1z" fill="rgb(0,0,0)"/>
<path d="M29 90h1v2h2v-2h1v5h-1v-2h-2v2h-1v-5z" fill="rgb(0,0,0)"/>
<path d="M34 90h4v1h-3v1h2v1h-2v1h3v1h-4v-5z" fill="rgb(0,0,0)"/>
<path d="M40 90h2v1h-2v-1z" fill="rgb(0,0,0)"/>
<path d="M44 90h1v4h3v1h-4v-5z" fill="rgb(0,0,0)"/>
<path d="M55 90h2v1h-2v-1z" fill="rgb(0,0,0)"/>
<path d="M39 91h1v1h2v-1h1v4h-1v-2h-2v2h-1v-4z" fill="rgb(0,0,0)"/>
<path d="M40 91h2v1h-2v-1z" fill="rgb(255,255,255)"/>
<path d="M54 91h1v1h2v-1h1v4h-1v-2h-2v2h-1v-4z" fill="rgb(0,0,0)"/>
<path d="M55 91h2v1h-2v-1z" fill="rgb(255,255,255)"/>
<path d="M24 96h1v1h1v1h-1v3h-1v-5z" fill="rgb(0,0,0)"/>
<path d="M28 96h1v5h-1v-3h-1v-1h1v-1z" fill="rgb(0,0,0)"/>
<path d="M30 96h3v1h-1v3h1v1h-3v-1h1v-3h-1v-1z" fill="rgb(0,0,0)"/>
<path d="M34 96h1v1h1v1h-1v3h-1v-5z" fill="rgb(0,0,0)"/>
<path d="M37 96h1v5h-1v-2h-1v-1h1v-2z" fill="rgb(0,0,0)"/>
<path d="M39 96h3v1h-1v3h1v1h-3v-1h1v-3h-1v-1z" fill="rgb(0,0,0)"/>
<path d="M44 96h2v1h-2v-1z" fill="rgb(0,0,0)"/>
<path d="M48 96h1v1h1v1h-1v3h-1v-5z" fill="rgb(0,0,0)"/>
<path d="M51 96h1v5h-1v-2h-1v-1h1v-2z" fill="rgb(0,0,0)"/>
<path d="M58 96h4v1h-3v1h2v1h-2v2h-1v-5z" fill="rgb(0,0,0)"/>
<path d="M64 96h2v1h-2v-1z" fill="rgb(0,0,0)"/>
<path d="M68 96h3v1h-2v1h2v2h-1v-1h-1v2h-1v-5z" fill="rgb(0,0,0)"/>
<path d="M43 97h1v3h-1v-3z" fill="rgb(0,0,0)"/>
<path d="M44 97h2v3h-2v-3z" fill="rgb(255,255,255)"/>
<path d="M46 97h1v3h-1v-3z" fill="rgb(0,0,0)"/>
<path d="M63 97h1v3h-1v-3z" fill="rgb(0,0,0)"/>
<path d="M64 97h2v3h-2v-3z" fill="rgb(255,255,255)"/>
<path d="M66 97h1v3h-1v-3z" fill="rgb(0,0,0)"/>
<path d="M69 97h2v1h-2v-1z" fill="rgb(255,255,255)"/>
<path d="M71 97h1v1h-1v-1z" fill="rgb(0,0,0)"/>
<path d="M26 98h1v1h-1v-1z" fill="rgb(0,0,0)"/>
<path d="M44 100h2v1h-2v-1z" fill="rgb(0,0,0)"/>
<path d="M64 100h2v1h-2v-1z" fill="rgb(0,0,0)"/>
<path d="M71 100h1v1h-1v-1z" fill="rgb(0,0,0)"/>
<path d="M44 102h4v1h-3v1h2v1h-3v-3z" fill="rgb(0,0,0)"/>
<path d="M47 105h1v1h-1v-1z" fill="rgb(0,0,0)"/>
<path d="M44 106h3v1h-3v-1z" fill="rgb(0,0,0)"/>
<path d="M1 110h18v17h-18v-17z" fill="rgb(244,67,54)"/>
<path d="M75 110h20v17h-20v-17z" fill="rgb(33,150,243)"/>
<path d="M10 116h1v3h1v1h-1v1h-1v-1h-2v-2h1v-1h1v-1z" fill="rgb(0,0,0)"/>
<path d="M84 116h4v1h-3v1h2v1h-3v-3z" fill="rgb(0,0,0)"/>
<path d="M9 118h1v1h-1v-1z" fill="rgb(244,67,54)"/>
<path d="M87 119h1v1h-1v-1z" fill="rgb(0,0,0)"/>
<path d="M84 120h3v1h-3v-1z" fill="rgb(0,0,0)"/>
<path d="M19 122h56v3h-56v-3z" fill="rgb(121,85,72)"/>
</svg>