<?xml version="1.0" encoding="utf-8"?>
<!-- generated at drububu.com  -->
<!DOCTYPE svg PUBLIC "-//W3C//DTD SVG 1.1//EN" "http://www.w3.org/Graphics/SVG/1.1/DTD/svg11.dtd">
<svg version="1.1" preserveAspectRatio="xMinYMin meet" xmlns="http://www.w3.org/2000/svg" xmlns:xlink="http://www.w3.org/1999/xlink" x="0px" y="0px" width="96px" height="128px" viewBox="0 0 96 128">
<path d="M0 0h96v128h-96v-128z" fill="rgb(255,255,255)"/>
<path d="M4 2h23v11h-23v-11z" fill="rgb(244,67,54)"/>
<path d="M34 2h27v11h-27v-11z" fill="rgb(76,175,80)"/>
<path d="M69 2h24v11h-24v-11z" fill="rgb(33,150,243)"/>
<path d="M2 5h2v8h23v-8h7v8h27v-8h8v8h24v-8h1v105h-4v-33h2v-13h-88v13h2v33h-4
	v-105z" fill="rgb(121,85,72)"/>
<path d="M13 5h2v1h-2v-1z" fill="rgb(0,0,0)"/>
<path d="M46 5h1v4h1v1h-3v-1h1v-2h-1v-1h1v-1z" fill="rgb(0,0,0)"/>
<path d="M80 5h2v1h-2v-1z" fill="rgb(0,0,0)"/>
<path d="M12 6h1v3h-1v-3z" fill="rgb(0,0,0)"/>
<path d="M13 6h2v3h-2v-3z" fill="rgb(244,67,54)"/>
<path d="M15 6h1v3h-1v-3z" fill="rgb(0,0,0)"/>
<path d="M79 6h1v3h-1v-3z" fill="rgb(0,0,0)"/>
<path d="M80 6h2v3h-2v-3z" fill="rgb(33,150,243)"/>
<path d="M82 6h1v3h-1v-3z" fill="rgb(0,0,0)"/>
<path d="M13 9h2v1h-2v-1z" fill="rgb(0,0,0)"/>
<path d="M80 9h2v1h-2v-1z" fill="rgb(0,0,0)"/>
<path d="M8 17h79v44h-79v-44z" fill="rgb(0,0,0)"/>
<path d="M9 18h29v2h-2v2h-2v2h-4v2h-2v2h-2v2h2v2h2v2h2v2h-2v4h2v2h2v2h6v-2h4v2
	h-2v6h2v6h-2v2h2v2h-35v-42z" fill="rgb(255,255,255)"/>
<path d="M44 18h6v2h-6v-2z" fill="rgb(255,255,255)"/>
<path d="M56 18h30v42h-36v-2h2v-6h-2v-4h-2v-2h2v-2h2v-2h2v2h6v-2h2v-2h2v-4h-2
	v-2h2v-2h2v-2h2v-2h-2v-2h-2v-2h-4v-2h-2v-2h-2v-2z" fill="rgb(255,255,255)"/>
<path d="M36 20h2v2h-2v-2z" fill="rgb(0,0,0)"/>
<path d="M38 20h6v2h-4v2h-4v-2h2v-2z" fill="rgb(241,196,15)"/>
<path d="M44 20h6v2h-6v-2z" fill="rgb(0,0,0)"/>
<path d="M50 20h6v2h2v2h-4v-2h-4v-2z" fill="rgb(241,196,15)"/>
<path d="M56 20h2v2h-2v-2z" fill="rgb(0,0,0)"/>
<path d="M34 22h2v2h4v2h-2v6h-2v-6h-6v-2h4v-2z" fill="rgb(0,0,0)"/>
<path d="M40 22h4v2h-4v-2z" fill="rgb(0,0,0)"/>
<path d="M44 22h6v2h4v2h2v6h-2v2h-2v2h-10v-2h-2v-2h-2v-6h2v-2h4v-2z" fill="rgb(255,255,255)"/>
<path d="M50 22h4v2h-4v-2z" fill="rgb(0,0,0)"/>
<path d="M58 22h2v2h4v2h-6v6h-2v-6h-2v-2h4v-2z" fill="rgb(0,0,0)"/>
<path d="M28 26h2v2h-2v-2z" fill="rgb(0,0,0)"/>
<path d="M30 26h6v6h-6v-2h-2v-2h2v-2z" fill="rgb(241,196,15)"/>
<path d="M44 26h2v2h-2v-2z" fill="rgb(0,0,0)"/>
<path d="M48 26h2v2h-2v-2z" fill="rgb(0,0,0)"/>
<path d="M58 26h6v2h2v2h-2v2h-6v-6z" fill="rgb(241,196,15)"/>
<path d="M64 26h2v2h-2v-2z" fill="rgb(0,0,0)"/>
<path d="M26 28h2v2h-2v-2z" fill="rgb(0,0,0)"/>
<path d="M66 28h2v2h-2v-2z" fill="rgb(0,0,0)"/>
<path d="M28 30h2v2h-2v-2z" fill="rgb(0,0,0)"/>
<path d="M42 30h2v2h-2v-2z" fill="rgb(0,0,0)"/>
<path d="M50 30h2v2h-2v-2z" fill="rgb(0,0,0)"/>
<path d="M64 30h2v2h-2v-2z" fill="rgb(0,0,0)"/>
<path d="M30 32h6v2h-2v2h-2v-2h-2v-2z" fill="rgb(0,0,0)"/>
<path d="M36 32h2v2h2v2h2v2h2v2h-4v2h-6v-2h-2v-4h2v-2h2v-2z" fill="rgb(241,196,15)"/>
<path d="M38 32h2v2h-2v-2z" fill="rgb(0,0,0)"/>
<path d="M44 32h6v2h-6v-2z" fill="rgb(0,0,0)"/>
<path d="M54 32h2v2h-2v-2z" fill="rgb(0,0,0)"/>
<path d="M56 32h2v2h2v2h2v4h-2v2h-6v-2h-4v-2h2v-2h2v-2h2v-2z" fill="rgb(241,196,15)"/>
<path d="M58 32h6v2h-2v2h-2v-2h-2v-2z" fill="rgb(0,0,0)"/>
<path d="M40 34h2v2h-2v-2z" fill="rgb(0,0,0)"/>
<path d="M52 34h2v2h-2v-2z" fill="rgb(0,0,0)"/>
<path d="M30 36h2v4h-2v-4z" fill="rgb(0,0,0)"/>
<path d="M42 36h10v2h-2v2h-2v-2h-2v6h-2v-2h-4v-2h4v-2h-2v-2z" fill="rgb(0,0,0)"/>
<path d="M62 36h2v4h-2v-4z" fill="rgb(0,0,0)"/>
<path d="M46 38h2v2h2v4h-2v2h-2v2h2v4h2v6h-6v-2h2v-6h-2v-6h2v-6z" fill="rgb(40,255,17)"/>
<path d="M32 40h2v2h-2v-2z" fill="rgb(0,0,0)"/>
<path d="M50 40h4v2h-2v2h-2v-4z" fill="rgb(0,0,0)"/>
<path d="M60 40h2v2h-2v-2z" fill="rgb(0,0,0)"/>
<path d="M34 42h6v2h-6v-2z" fill="rgb(0,0,0)"/>
<path d="M54 42h6v2h-6v-2z" fill="rgb(0,0,0)"/>
<path d="M42 44h2v6h-2v-6z" fill="rgb(0,0,0)"/>
<path d="M48 44h2v2h-2v-2z" fill="rgb(0,0,0)"/>
<path d="M46 46h2v2h-2v-2z" fill="rgb(0,0,0)"/>
<path d="M48 48h2v4h-2v-4z" fill="rgb(0,0,0)"/>
<path d="M44 50h2v6h-2v-6z" fill="rgb(0,0,0)"/>
<path d="M50 52h2v6h-2v-6z" fill="rgb(0,0,0)"/>
<path d="M42 56h2v2h-2v-2z" fill="rgb(0,0,0)"/>
<path d="M4 64h88v13h-88v-13z" fill="rgb(0,0,0)"/>
<path d="M5 65h86v11h-86v-11z" fill="rgb(255,255,255)"/>
<path d="M32 68h4v1h-3v1h2v1h-2v2h-1v-5z" fill="rgb(0,0,0)"/>
<path d="M37 68h1v4h3v1h-4v-5z" fill="rgb(0,0,0)"/>
<path d="M43 68h2v1h-2v-1z" fill="rgb(0,0,0)"/>
<path d="M47 68h1v3h1v1h-1v1h-1v-5z" fill="rgb(0,0,0)"/>
<path d="M51 68h1v5h-1v-1h-1v-1h1v-3z" fill="rgb(0,0,0)"/>
<path d="M53 68h4v1h-3v1h2v1h-2v1h3v1h-4v-5z" fill="rgb(0,0,0)"/>
<path d="M58 68h1v2h-1v-2z" fill="rgb(0,0,0)"/>
<path d="M62 68h1v2h-1v-2z" fill="rgb(0,0,0)"/>
<path d="M42 69h1v3h-1v-3z" fill="rgb(0,0,0)"/>
<path d="M43 69h2v3h-2v-3z" fill="rgb(255,255,255)"/>
<path d="M45 69h1v3h-1v-3z" fill="rgb(0,0,0)"/>
<path d="M49 70h1v1h-1v-1z" fill="rgb(0,0,0)"/>
<path d="M59 70h3v1h-1v2h-1v-2h-1v-1z" fill="rgb(0,0,0)"/>
<path d="M43 72h2v1h-2v-1z" fill="rgb(0,0,0)"/>
<path d="M6 77h84v33h-15v12h-56v-12h-13v-33z" fill="rgb(255,255,255)"/>
<path d="M21 84h3v1h-2v1h2v1h-2v1h2v1h-3v-5z" fill="rgb(0,0,0)"/>
<path d="M27 84h2v1h-2v-1z" fill="rgb(0,0,0)"/>
<path d="M31 84h5v1h-2v4h-1v-4h-2v-1z" fill="rgb(0,0,0)"/>
<path d="M37 84h5v1h-2v4h-1v-4h-2v-1z" fill="rgb(0,0,0)"/>
<path d="M43 84h1v4h3v1h-4v-5z" fill="rgb(0,0,0)"/>
<path d="M48 84h4v1h-3v1h2v1h-2v1h3v1h-4v-5z" fill="rgb(0,0,0)"/>
<path d="M54 84h2v1h-2v-1z" fill="rgb(0,0,0)"/>
<path d="M58 84h3v1h-2v1h2v2h-1v-1h-1v2h-1v-5z" fill="rgb(0,0,0)"/>
<path d="M63 84h1v2h-1v-2z" fill="rgb(0,0,0)"/>
<path d="M67 84h1v2h-1v-2z" fill="rgb(0,0,0)"/>
<path d="M22 85h2v1h-2v-1z" fill="rgb(255,255,255)"/>
<path d="M24 85h1v1h-1v-1z" fill="rgb(0,0,0)"/>
<path d="M26 85h1v1h2v-1h1v4h-1v-2h-2v2h-1v-4z" fill="rgb(0,0,0)"/>
<path d="M27 85h2v1h-2v-1z" fill="rgb(255,255,255)"/>
<path d="M53 85h1v3h-1v-3z" fill="rgb(0,0,0)"/>
<path d="M56 85h1v1h-1v-1z" fill="rgb(0,0,0)"/>
<path d="M59 85h2v1h-2v-1z" fill="rgb(255,255,255)"/>
<path d="M61 85h1v1h-1v-1z" fill="rgb(0,0,0)"/>
<path d="M69 85h1v1h-1v-1z" fill="rgb(0,0,0)"/>
<path d="M64 86h3v1h-1v2h-1v-2h-1v-1z" fill="rgb(0,0,0)"/>
<path d="M22 87h2v1h-2v-1z" fill="rgb(255,255,255)"/>
<path d="M24 87h1v1h-1v-1z" fill="rgb(0,0,0)"/>
<path d="M56 87h1v1h-1v-1z" fill="rgb(0,0,0)"/>
<path d="M54 88h2v1h-2v-1z" fill="rgb(0,0,0)"/>
<path d="M61 88h1v1h-1v-1z" fill="rgb(0,0,0)"/>
<path d="M69 88h1v1h-1v-1z" fill="rgb(0,0,0)"/>
<path d="M16 90h3v1h-2v3h2v1h-3v-5z" fill="rgb(0,0,0)"/>
<path d="M21 90h4v1h-3v1h2v1h-2v1h3v1h-4v-5z" fill="rgb(0,0,0)"/>
<path d="M27 90h2v1h-2v-1z" fill="rgb(0,0,0)"/>
<path d="M31 90h1v4h3v1h-4v-5z" fill="rgb(0,0,0)"/>
<path d="M42 90h1v4h1v1h-3v-1h1v-2h-1v-1h1v-1z" fill="rgb(0,0,0)"/>
<path d="M50 90h3v1h-2v3h2v1h-3v-5z" fill="rgb(0,0,0)"/>
<path d="M56 90h2v1h-2v-1z" fill="rgb(0,0,0)"/>
<path d="M60 90h1v1h1v1h-1v3h-1v-5z" fill="rgb(0,0,0)"/>
<path d="M64 90h1v5h-1v-3h-1v-1h1v-1z" fill="rgb(0,0,0)"/>
<path d="M67 90h2v1h-2v-1z" fill="rgb(0,0,0)"/>
<path d="M72 90h2v1h-2v-1z" fill="rgb(0,0,0)"/>
<path d="M76 90h4v1h-3v1h2v1h-2v1h3v1h-4v-5z" fill="rgb(0,0,0)"/>
<path d="M17 91h2v3h-2v-3z" fill="rgb(255,255,255)"/>
<path d="M19 91h1v3h-1v-3z" fill="rgb(0,0,0)"/>
<path d="M26 91h1v1h2v-1h1v4h-1v-2h-2v2h-1v-4z" fill="rgb(0,0,0)"/>
<path d="M27 91h2v1h-2v-1z" fill="rgb(255,255,255)"/>
<path d="M51 91h2v3h-2v-3z" fill="rgb(255,255,255)"/>
<path d="M53 91h1v3h-1v-3z" fill="rgb(0,0,0)"/>
<path d="M55 91h1v1h2v-1h1v4h-1v-2h-2v2h-1v-4z" fill="rgb(0,0,0)"/>
<path d="M56 91h2v1h-2v-1z" fill="rgb(255,255,255)"/>
<path d="M66 91h1v1h2v-1h1v4h-1v-2h-2v2h-1v-4z" fill="rgb(0,0,0)"/>
<path d="M67 91h2v1h-2v-1z" fill="rgb(255,255,255)"/>
<path d="M71 91h1v3h-1v-3z" fill="rgb(0,0,0)"/>
<path d="M62 92h1v1h-1v-1z" fill="rgb(0,0,0)"/>
<path d="M73 92h2v2h-1v-1h-1v-1z" fill="rgb(0,0,0)"/>
<path d="M72 94h2v1h-2v-1z" fill="rgb(0,0,0)"/>
<path d="M21 96h5v1h-2v4h-1v-4h-2v-1z" fill="rgb(0,0,0)"/>
<path d="M28 96h2v1h-2v-1z" fill="rgb(0,0,0)"/>
<path d="M38 96h2v1h-2v-1z" fill="rgb(0,0,0)"/>
<path d="M42 96h1v1h1v1h-1v3h-1v-5z" fill="rgb(0,0,0)"/>
<path d="M45 96h1v5h-1v-2h-1v-1h1v-2z" fill="rgb(0,0,0)"/>
<path d="M52 96h4v1h-3v1h2v1h-2v1h3v1h-4v-5z" fill="rgb(0,0,0)"/>
<path d="M57 96h1v1h1v1h-1v3h-1v-5z" fill="rgb(0,0,0)"/>
<path d="M60 96h1v5h-1v-2h-1v-1h1v-2z" fill="rgb(0,0,0)"/>
<path d="M62 96h4v1h-3v1h2v1h-2v1h3v1h-4v-5z" fill="rgb(0,0,0)"/>
<path d="M67 96h1v1h1v1h-1v3h-1v-5z" fill="rgb(0,0,0)"/>
<path d="M71 96h1v5h-1v-3h-1v-1h1v-1z" fill="rgb(0,0,0)"/>
<path d="M73 96h1v2h-1v-2z" fill="rgb(0,0,0)"/>
<path d="M77 96h1v2h-1v-2z" fill="rgb(0,0,0)"/>
<path d="M27 97h1v3h-1v-3z" fill="rgb(0,0,0)"/>
<path d="M28 97h2v3h-2v-3z" fill="rgb(255,255,255)"/>
<path d="M30 97h1v3h-1v-3z" fill="rgb(0,0,0)"/>
<path d="M37 97h1v1h2v-1h1v4h-1v-2h-2v2h-1v-4z" fill="rgb(0,0,0)"/>
<path d="M38 97h2v1h-2v-1z" fill="rgb(255,255,255)"/>
<path d="M69 98h1v1h-1v-1z" fill="rgb(0,0,0)"/>
<path d="M74 98h3v1h-1v2h-1v-2h-1v-1z" fill="rgb(0,0,0)"/>
<path d="M28 100h2v1h-2v-1z" fill="rgb(0,0,0)"/>
<path d="M1 110h18v17h-18v-17z" fill="rgb(244,67,54)"/>
<path d="M75 110h20v17h-20v-17z" fill="rgb(33,150,243)"/>
<path d="M10 116h1v4h1v1h-3v-1h1v-2h-1v-1h1v-1z" fill="rgb(0,0,0)"/>
<path d="M84 116h1v4h1v1h-3v-1h1v-2h-1v-1h1v-1z" fill="rgb(0,0,0)"/>
<path d="M19 122h56v3h-56v-3z" fill="rgb(121,85,72)"/>
</svg>